<?xml version="1.0" encoding="UTF-8" standalone="no"?>
<svg width="36px" height="36px" viewBox="0 0 36 36" version="1.1" xmlns="http://www.w3.org/2000/svg" xmlns:xlink="http://www.w3.org/1999/xlink" xmlns:sketch="http://www.bohemiancoding.com/sketch/ns">
    <!-- Generator: Sketch 3.4.2 (15857) - http://www.bohemiancoding.com/sketch -->
    <title>Oval 78 + noun_154486_cc copy + Group Copy 4@1x</title>
    <desc>Created with Sketch.</desc>
    <defs></defs>
    <g id="instructor---light" stroke="none" stroke-width="1" fill="none" fill-rule="evenodd" sketch:type="MSPage">
        <g id="dashboard-undo" sketch:type="MSArtboardGroup" transform="translate(-1295.000000, -130.000000)">
            <g id="Oval-78-+-noun_154486_cc-copy-+-Group-Copy-4" sketch:type="MSLayerGroup" transform="translate(1295.000000, 130.000000)">
                <g id="Oval-78-+-noun_154486_cc-copy" transform="translate(0.020020, 0.000000)" fill="#CDCACA" sketch:type="MSShapeGroup">
                    <circle id="Oval-78" cx="18" cy="18" r="18"></circle>
                </g>
                <g id="Group-Copy-4" transform="translate(10.904475, 10.455750)" stroke="#4A4A4A" fill="#4A4A4A" sketch:type="MSShapeGroup">
                    <path d="M12.7477931,4.44568108 L12.7477931,6.82106143 C12.7477931,7.22681029 12.4244844,7.55573479 12.0256626,7.55573479 C11.6268409,7.55573479 11.3035321,7.22681029 11.3035321,6.82106143 L11.3035321,4.44568108 L9.06363292,4.44568108 C8.66848719,4.44568108 8.34815848,4.12237237 8.34815848,3.72355053 C8.34815848,3.32472888 8.66848719,3.00141999 9.06363292,3.00141999 L11.3035321,3.00141999 L11.3035321,0.754693685 C11.3035321,0.348944829 11.6268409,0.0200205089 12.0256626,0.0200205089 C12.4244844,0.0200205089 12.7477931,0.348944829 12.7477931,0.754693685 L12.7477931,3.00141999 L15.1683983,3.00141999 C15.5635439,3.00141999 15.8838728,3.32472888 15.8838728,3.72355053 C15.8838728,4.12237237 15.5635439,4.44568108 15.1683983,4.44568108 L12.7477931,4.44568108 L12.7477931,4.44568108 Z M14.5864014,7.13257015 L14.5864014,13.9349602 C14.5864014,14.2947821 14.2948538,14.5864014 13.9354065,14.5864014 L1.94756384,14.5864014 C1.58743743,14.5864014 1.29656906,14.2954222 1.29656906,13.9354065 L1.29656906,1.94756384 C1.29656906,1.58722777 1.58712842,1.29656888 1.94615767,1.29656888 L8.80946611,1.29656888 L8.80946611,0 L1.94615767,0 C0.871324407,0 0,0.87088092 0,1.94756384 L0,13.9354065 C0,15.0110164 0.870881096,15.8829705 1.94756384,15.8829705 L13.9354065,15.8829705 C15.0110164,15.8829705 15.8829705,15.0107702 15.8829705,13.9349602 L15.8829705,7.13257015 L14.5864014,7.13257015 L14.5864014,7.13257015 Z" id="Shape"></path>
                </g>
            </g>
        </g>
    </g>
</svg>