<?xml version="1.0" encoding="UTF-8" standalone="no"?>
<svg width="37px" height="37px" viewBox="0 0 37 37" version="1.1" xmlns="http://www.w3.org/2000/svg" xmlns:xlink="http://www.w3.org/1999/xlink" xmlns:sketch="http://www.bohemiancoding.com/sketch/ns">
    <!-- Generator: Sketch 3.4.2 (15857) - http://www.bohemiancoding.com/sketch -->
    <title>Oval 78 + noun_154486_cc copy + noun_59294_cc@2x</title>
    <desc>Created with Sketch.</desc>
    <defs></defs>
    <g id="instructor---light" stroke="none" stroke-width="1" fill="none" fill-rule="evenodd" sketch:type="MSPage">
        <g id="My-rides" sketch:type="MSArtboardGroup" transform="translate(-1045.000000, -150.000000)">
            <g id="Oval-78-+-noun_154486_cc-copy-+-noun_59294_cc" sketch:type="MSLayerGroup" transform="translate(1045.480347, 150.156250)">
                <g id="Oval-78-+-noun_154486_cc-copy" fill="#CDCACA" sketch:type="MSShapeGroup">
                    <circle id="Oval-78" cx="18" cy="18" r="18"></circle>
                </g>
                <g id="noun_59294_cc" transform="translate(8.081633, 7.346939)" fill="#272835" sketch:type="MSShapeGroup">
                    <path d="M9.74385769,2.20408163 C4.36247325,2.20408163 0,6.56655488 0,11.9479393 C0,17.3293238 4.36247325,21.6920651 9.74385769,21.6920651 C15.1252421,21.6920651 19.4879835,17.3293238 19.4879835,11.9479393 C19.4879835,6.56655488 15.1252421,2.20408163 9.74385769,2.20408163 L9.74385769,2.20408163 Z M9.68313724,20.1012249 C5.1468835,20.1012249 1.46938776,16.4237292 1.46938776,11.8872189 C1.46938776,7.35096514 5.1468835,3.67346939 9.68313724,3.67346939 C14.2196476,3.67346939 17.8971433,7.35096514 17.8971433,11.8872189 C17.8971433,16.4237292 14.2196476,20.1012249 9.68313724,20.1012249 L9.68313724,20.1012249 Z" id="Shape"></path>
                    <path d="M11.2589553,2.41284391 C11.2589553,2.56081522 11.1391307,2.68090789 10.9908913,2.68090789 L8.84637948,2.68090789 C8.69840816,2.68090789 8.5783155,2.56081522 8.5783155,2.41284391 L8.5783155,0.268332046 C8.5783155,0.120360728 8.69840816,0.000268063982 8.84637948,0.000268063982 L10.9908913,0.000268063982 C11.1391307,0.000268063982 11.2589553,0.120360728 11.2589553,0.268332046 L11.2589553,2.41284391 L11.2589553,2.41284391 Z" id="Shape"></path>
                    <path d="M15.9045041,4.37587645 C15.8305185,4.50401103 15.6664633,4.54797352 15.5383287,4.47398787 L13.6811815,3.40146387 C13.5527788,3.32747821 13.5088163,3.16342306 13.582802,3.03555654 L14.6550579,1.1781412 C14.7290436,1.04973855 14.8933668,1.00577606 15.0215014,1.08002978 L16.8786486,2.15255378 C17.0070513,2.22627137 17.0510138,2.39032653 16.9767601,2.51846111 L15.9045041,4.37587645 L15.9045041,4.37587645 Z" id="Shape"></path>
                    <g id="Group" transform="translate(2.204082, 4.408163)">
                        <rect id="Rectangle-path" x="7.42816821" y="0.349581333" width="0.572235018" height="2.35918449"></rect>
                        <path d="M2.37979577,2.67067222 L2.78442315,2.26604484 L4.45242944,3.93405113 L4.04780206,4.33867851 L2.37979577,2.67067222 L2.37979577,2.67067222 Z" id="Rectangle-path"></path>
                        <rect id="Rectangle-path" x="0.421838174" y="7.29668088" width="2.35918449" height="0.572235018"></rect>
                        <path d="M2.71205522,12.929127 L2.30765674,12.5242707 L3.9766066,10.857208 L4.38100509,11.2620643 L2.71205522,12.929127 L2.71205522,12.929127 Z" id="Rectangle-path"></path>
                        <rect id="Rectangle-path" x="7.34788887" y="12.549348" width="0.572235018" height="2.35918449"></rect>
                        <path d="M13.0135037,12.5976139 L12.6086474,13.0020124 L10.9412388,11.3327162 L11.346095,10.9283177 L13.0135037,12.5976139 L13.0135037,12.5976139 Z" id="Rectangle-path"></path>
                        <rect id="Rectangle-path" x="12.6712899" y="7.36349874" width="2.359674" height="0.572235018"></rect>
                        <path d="M12.7495586,2.21591542 L13.1538999,2.62082891 L11.4843677,4.28800162 L11.0800265,3.88308812 L12.7495586,2.21591542 L12.7495586,2.21591542 Z" id="Rectangle-path"></path>
                    </g>
                </g>
            </g>
        </g>
    </g>
</svg>