<?xml version="1.0" encoding="utf-8"?>
<!-- Generator: Adobe Illustrator 18.1.0, SVG Export Plug-In . SVG Version: 6.00 Build 0)  -->
<svg version="1.1" id="Layer_1" xmlns="http://www.w3.org/2000/svg" xmlns:xlink="http://www.w3.org/1999/xlink" x="0px" y="0px"
	 viewBox="0 0 41 41" enable-background="new 0 0 41 41" xml:space="preserve">
<g>
	<g>
		<defs>
			<circle id="SVGID_1_" cx="20.5" cy="20.5" r="20.5"/>
		</defs>
		<clipPath id="SVGID_2_">
			<use xlink:href="#SVGID_1_"  overflow="visible"/>
		</clipPath>
		<rect x="-5" y="-5" clip-path="url(#SVGID_2_)" fill="#EE2C42" width="51" height="51"/>
	</g>
	<g>
		<defs>
			<path id="SVGID_3_" d="M23.2,19.7c-1.5,1.7-3.9,1.7-5.4,0c-2.3-2.5-5.9-2.5-8.2,0C8.9,20.6,7.9,21,6.9,21c0,0,0,2.2,0,2.2
				c1.5,0,3-0.7,4.1-1.9c1.5-1.7,3.9-1.7,5.4,0c1.1,1.3,2.6,1.9,4.1,1.9c1.5,0,3-0.6,4.1-1.9c1.5-1.7,3.9-1.7,5.4,0
				c1.1,1.2,2.5,1.9,4.1,1.9V21c-1,0-2-0.5-2.7-1.3C29.1,17.2,25.5,17.2,23.2,19.7z"/>
		</defs>
		<use xlink:href="#SVGID_3_"  overflow="visible" fill-rule="evenodd" clip-rule="evenodd" fill="#FFFFFF"/>
		<clipPath id="SVGID_4_">
			<use xlink:href="#SVGID_3_"  overflow="visible"/>
		</clipPath>
		<g clip-path="url(#SVGID_4_)">
			<defs>
				<rect id="SVGID_5_" x="-441.5" y="-107.2" width="797.2" height="458.4"/>
			</defs>
			<use xlink:href="#SVGID_5_"  overflow="visible" fill="#FFFFFF"/>
			<clipPath id="SVGID_6_">
				<use xlink:href="#SVGID_5_"  overflow="visible"/>
			</clipPath>
			<rect x="4.1" y="15.1" clip-path="url(#SVGID_6_)" fill="#FFFFFF" width="32.8" height="10.9"/>
		</g>
	</g>
</g>
</svg>
