<?xml version="1.0" encoding="utf-8"?>
<!-- Generator: Adobe Illustrator 18.1.0, SVG Export Plug-In . SVG Version: 6.00 Build 0)  -->
<svg version="1.1" id="Layer_1" xmlns="http://www.w3.org/2000/svg" xmlns:xlink="http://www.w3.org/1999/xlink" x="0px" y="0px"
	 viewBox="0 0 41 41" enable-background="new 0 0 41 41" xml:space="preserve">
<g>
	<g>
		<defs>
			<circle id="SVGID_1_" cx="20.5" cy="20.5" r="20.5"/>
		</defs>
		<clipPath id="SVGID_2_">
			<use xlink:href="#SVGID_1_"  overflow="visible"/>
		</clipPath>
		<rect x="-5" y="-5" clip-path="url(#SVGID_2_)" fill="#EE2C42" width="51" height="51"/>
	</g>
	<g>
		<g>
			<defs>
				<path id="SVGID_3_" d="M20.4,30.6c-4.9,0-8.9-4-8.9-8.9c0-4.9,4-8.9,8.9-8.9c4.9,0,8.9,4,8.9,8.9C29.4,26.6,25.4,30.6,20.4,30.6
					z M20.5,11.1c-5.9,0-10.6,4.7-10.6,10.6c0,5.9,4.7,10.6,10.6,10.6s10.6-4.7,10.6-10.6C31.1,15.8,26.4,11.1,20.5,11.1z"/>
			</defs>
			<use xlink:href="#SVGID_3_"  overflow="visible" fill-rule="evenodd" clip-rule="evenodd" fill="#FFFFFF"/>
			<clipPath id="SVGID_4_">
				<use xlink:href="#SVGID_3_"  overflow="visible"/>
			</clipPath>
			<g clip-path="url(#SVGID_4_)">
				<defs>
					<rect id="SVGID_5_" x="-316" y="-111.7" width="817.5" height="470.1"/>
				</defs>
				<use xlink:href="#SVGID_5_"  overflow="visible" fill="#FFFFFF"/>
				<clipPath id="SVGID_6_">
					<use xlink:href="#SVGID_5_"  overflow="visible"/>
				</clipPath>
				<rect x="7.1" y="8.3" clip-path="url(#SVGID_6_)" fill="#FFFFFF" width="26.9" height="26.9"/>
			</g>
		</g>
		<g>
			<defs>
				<path id="SVGID_7_" d="M22.1,11.3c0,0.2-0.1,0.3-0.3,0.3h-2.3c-0.2,0-0.3-0.1-0.3-0.3V9c0-0.2,0.1-0.3,0.3-0.3h2.3
					c0.2,0,0.3,0.1,0.3,0.3V11.3z"/>
			</defs>
			<use xlink:href="#SVGID_7_"  overflow="visible" fill-rule="evenodd" clip-rule="evenodd" fill="#FFFFFF"/>
			<clipPath id="SVGID_8_">
				<use xlink:href="#SVGID_7_"  overflow="visible"/>
			</clipPath>
			<g clip-path="url(#SVGID_8_)">
				<defs>
					<rect id="SVGID_9_" x="-316" y="-111.7" width="817.5" height="470.1"/>
				</defs>
				<use xlink:href="#SVGID_9_"  overflow="visible" fill="#FFFFFF"/>
				<clipPath id="SVGID_10_">
					<use xlink:href="#SVGID_9_"  overflow="visible"/>
				</clipPath>
				<rect x="16.4" y="5.9" clip-path="url(#SVGID_10_)" fill="#FFFFFF" width="8.6" height="8.6"/>
			</g>
		</g>
		<g>
			<defs>
				<path id="SVGID_11_" d="M27.2,13.5c-0.1,0.1-0.3,0.2-0.4,0.1l-2-1.2c-0.1-0.1-0.2-0.3-0.1-0.4l1.2-2c0.1-0.1,0.3-0.2,0.4-0.1
					l2,1.2c0.1,0.1,0.2,0.3,0.1,0.4L27.2,13.5z"/>
			</defs>
			<use xlink:href="#SVGID_11_"  overflow="visible" fill-rule="evenodd" clip-rule="evenodd" fill="#FFFFFF"/>
			<clipPath id="SVGID_12_">
				<use xlink:href="#SVGID_11_"  overflow="visible"/>
			</clipPath>
			<g clip-path="url(#SVGID_12_)">
				<defs>
					<rect id="SVGID_13_" x="-316" y="-111.7" width="817.5" height="470.1"/>
				</defs>
				<use xlink:href="#SVGID_13_"  overflow="visible" fill="#FFFFFF"/>
				<clipPath id="SVGID_14_">
					<use xlink:href="#SVGID_13_"  overflow="visible"/>
				</clipPath>
				<rect x="21.8" y="7" clip-path="url(#SVGID_14_)" fill="#FFFFFF" width="9.4" height="9.4"/>
			</g>
		</g>
		<g>
			<g>
				<defs>
					<rect id="SVGID_15_" x="20.3" y="13.9" width="0.6" height="2.5"/>
				</defs>
				<use xlink:href="#SVGID_15_"  overflow="visible" fill-rule="evenodd" clip-rule="evenodd" fill="#FFFFFF"/>
				<clipPath id="SVGID_16_">
					<use xlink:href="#SVGID_15_"  overflow="visible"/>
				</clipPath>
				<g clip-path="url(#SVGID_16_)">
					<defs>
						<rect id="SVGID_17_" x="-310.8" y="-109.7" width="804.7" height="462.7"/>
					</defs>
					<use xlink:href="#SVGID_17_"  overflow="visible" fill="#FFFFFF"/>
					<clipPath id="SVGID_18_">
						<use xlink:href="#SVGID_17_"  overflow="visible"/>
					</clipPath>
					<rect x="17.5" y="11.1" clip-path="url(#SVGID_18_)" fill="#FFFFFF" width="6.2" height="8.1"/>
				</g>
			</g>
			<g>
				<defs>
					
						<rect id="SVGID_19_" x="15.7" y="15.8" transform="matrix(-0.7071 0.7071 -0.7071 -0.7071 39.3011 17.8003)" width="0.6" height="2.5"/>
				</defs>
				<use xlink:href="#SVGID_19_"  overflow="visible" fill-rule="evenodd" clip-rule="evenodd" fill="#FFFFFF"/>
				<clipPath id="SVGID_20_">
					<use xlink:href="#SVGID_19_"  overflow="visible"/>
				</clipPath>
				<g clip-path="url(#SVGID_20_)">
					<defs>
						<rect id="SVGID_21_" x="-310.8" y="-109.7" width="804.7" height="462.7"/>
					</defs>
					<use xlink:href="#SVGID_21_"  overflow="visible" fill="#FFFFFF"/>
					<clipPath id="SVGID_22_">
						<use xlink:href="#SVGID_21_"  overflow="visible"/>
					</clipPath>
					<rect x="12.1" y="13.1" clip-path="url(#SVGID_22_)" fill="#FFFFFF" width="7.8" height="7.8"/>
				</g>
			</g>
			<g>
				<defs>
					<rect id="SVGID_23_" x="12.8" y="21.3" width="2.5" height="0.6"/>
				</defs>
				<use xlink:href="#SVGID_23_"  overflow="visible" fill-rule="evenodd" clip-rule="evenodd" fill="#FFFFFF"/>
				<clipPath id="SVGID_24_">
					<use xlink:href="#SVGID_23_"  overflow="visible"/>
				</clipPath>
				<g clip-path="url(#SVGID_24_)">
					<defs>
						<rect id="SVGID_25_" x="-310.8" y="-109.7" width="804.7" height="462.7"/>
					</defs>
					<use xlink:href="#SVGID_25_"  overflow="visible" fill="#FFFFFF"/>
					<clipPath id="SVGID_26_">
						<use xlink:href="#SVGID_25_"  overflow="visible"/>
					</clipPath>
					<rect x="10" y="18.5" clip-path="url(#SVGID_26_)" fill="#FFFFFF" width="8.1" height="6.2"/>
				</g>
			</g>
			<g>
				<defs>
					
						<rect id="SVGID_27_" x="15.6" y="25" transform="matrix(0.7067 0.7075 -0.7075 0.7067 23.2229 -3.5452)" width="0.6" height="2.5"/>
				</defs>
				<use xlink:href="#SVGID_27_"  overflow="visible" fill-rule="evenodd" clip-rule="evenodd" fill="#FFFFFF"/>
				<clipPath id="SVGID_28_">
					<use xlink:href="#SVGID_27_"  overflow="visible"/>
				</clipPath>
				<g clip-path="url(#SVGID_28_)">
					<defs>
						<rect id="SVGID_29_" x="-310.8" y="-109.7" width="804.7" height="462.7"/>
					</defs>
					<use xlink:href="#SVGID_29_"  overflow="visible" fill="#FFFFFF"/>
					<clipPath id="SVGID_30_">
						<use xlink:href="#SVGID_29_"  overflow="visible"/>
					</clipPath>
					<rect x="12" y="22.3" clip-path="url(#SVGID_30_)" fill="#FFFFFF" width="7.8" height="7.8"/>
				</g>
			</g>
			<g>
				<defs>
					<rect id="SVGID_31_" x="20.2" y="26.9" width="0.6" height="2.5"/>
				</defs>
				<use xlink:href="#SVGID_31_"  overflow="visible" fill-rule="evenodd" clip-rule="evenodd" fill="#FFFFFF"/>
				<clipPath id="SVGID_32_">
					<use xlink:href="#SVGID_31_"  overflow="visible"/>
				</clipPath>
				<g clip-path="url(#SVGID_32_)">
					<defs>
						<rect id="SVGID_33_" x="-310.8" y="-109.7" width="804.7" height="462.7"/>
					</defs>
					<use xlink:href="#SVGID_33_"  overflow="visible" fill="#FFFFFF"/>
					<clipPath id="SVGID_34_">
						<use xlink:href="#SVGID_33_"  overflow="visible"/>
					</clipPath>
					<rect x="17.4" y="24.1" clip-path="url(#SVGID_34_)" fill="#FFFFFF" width="6.2" height="8.1"/>
				</g>
			</g>
			<g>
				<defs>
					<polyline id="SVGID_35_" points="26.2,27 25.8,27.4 24,25.6 24.5,25.2 26.2,27 					"/>
				</defs>
				<use xlink:href="#SVGID_35_"  overflow="visible" fill-rule="evenodd" clip-rule="evenodd" fill="#FFFFFF"/>
				<clipPath id="SVGID_36_">
					<use xlink:href="#SVGID_35_"  overflow="visible"/>
				</clipPath>
				<g clip-path="url(#SVGID_36_)">
					<defs>
						<rect id="SVGID_37_" x="-310.8" y="-109.7" width="804.7" height="462.7"/>
					</defs>
					<use xlink:href="#SVGID_37_"  overflow="visible" fill="#FFFFFF"/>
					<clipPath id="SVGID_38_">
						<use xlink:href="#SVGID_37_"  overflow="visible"/>
					</clipPath>
					<rect x="21.2" y="22.4" clip-path="url(#SVGID_38_)" fill="#FFFFFF" width="7.8" height="7.8"/>
				</g>
			</g>
			<g>
				<defs>
					<rect id="SVGID_39_" x="25.9" y="21.4" width="2.5" height="0.6"/>
				</defs>
				<use xlink:href="#SVGID_39_"  overflow="visible" fill-rule="evenodd" clip-rule="evenodd" fill="#FFFFFF"/>
				<clipPath id="SVGID_40_">
					<use xlink:href="#SVGID_39_"  overflow="visible"/>
				</clipPath>
				<g clip-path="url(#SVGID_40_)">
					<defs>
						<rect id="SVGID_41_" x="-310.8" y="-109.7" width="804.7" height="462.7"/>
					</defs>
					<use xlink:href="#SVGID_41_"  overflow="visible" fill="#FFFFFF"/>
					<clipPath id="SVGID_42_">
						<use xlink:href="#SVGID_41_"  overflow="visible"/>
					</clipPath>
					<rect x="23.1" y="18.6" clip-path="url(#SVGID_42_)" fill="#FFFFFF" width="8.1" height="6.2"/>
				</g>
			</g>
			<g>
				<defs>
					
						<rect id="SVGID_43_" x="25" y="15.7" transform="matrix(-0.7066 -0.7076 0.7076 -0.7066 31.1212 46.8751)" width="0.6" height="2.5"/>
				</defs>
				<use xlink:href="#SVGID_43_"  overflow="visible" fill-rule="evenodd" clip-rule="evenodd" fill="#FFFFFF"/>
				<clipPath id="SVGID_44_">
					<use xlink:href="#SVGID_43_"  overflow="visible"/>
				</clipPath>
				<g clip-path="url(#SVGID_44_)">
					<defs>
						<rect id="SVGID_45_" x="-310.8" y="-109.7" width="804.7" height="462.7"/>
					</defs>
					<use xlink:href="#SVGID_45_"  overflow="visible" fill="#FFFFFF"/>
					<clipPath id="SVGID_46_">
						<use xlink:href="#SVGID_45_"  overflow="visible"/>
					</clipPath>
					<rect x="21.4" y="13.1" clip-path="url(#SVGID_46_)" fill="#FFFFFF" width="7.8" height="7.8"/>
				</g>
			</g>
		</g>
	</g>
</g>
</svg>
