<?xml version="1.0" encoding="utf-8"?>
<!-- Generator: Adobe Illustrator 18.1.0, SVG Export Plug-In . SVG Version: 6.00 Build 0)  -->
<svg version="1.1" id="Layer_1" xmlns="http://www.w3.org/2000/svg" xmlns:xlink="http://www.w3.org/1999/xlink" x="0px" y="0px"
	 viewBox="0 0 41 41" enable-background="new 0 0 41 41" xml:space="preserve">
<g>
	<g>
		<defs>
			<circle id="SVGID_1_" cx="20.5" cy="20.5" r="20.5"/>
		</defs>
		<clipPath id="SVGID_2_">
			<use xlink:href="#SVGID_1_"  overflow="visible"/>
		</clipPath>
		<rect x="-5" y="-5" clip-path="url(#SVGID_2_)" fill="#EE2C42" width="51" height="51"/>
	</g>
	<g>
		<g>
			<defs>
				<path id="SVGID_3_" d="M17.4,21.1c0-0.3,0.2-0.5,0.5-0.5h1.5c0.3,0,0.5,0.2,0.5,0.5v8.1c0,0.3-0.2,0.5-0.5,0.5h-1.5
					c-0.3,0-0.5-0.2-0.5-0.5V21.1z"/>
			</defs>
			<use xlink:href="#SVGID_3_"  overflow="visible" fill-rule="evenodd" clip-rule="evenodd" fill="#FFFFFF"/>
			<clipPath id="SVGID_4_">
				<use xlink:href="#SVGID_3_"  overflow="visible"/>
			</clipPath>
			<g clip-path="url(#SVGID_4_)">
				<defs>
					<rect id="SVGID_5_" x="-530.5" y="-98.3" width="742.4" height="426.9"/>
				</defs>
				<use xlink:href="#SVGID_5_"  overflow="visible" fill="#FFFFFF"/>
				<clipPath id="SVGID_6_">
					<use xlink:href="#SVGID_5_"  overflow="visible"/>
				</clipPath>
				<rect x="14.8" y="18" clip-path="url(#SVGID_6_)" fill="#FFFFFF" width="7.6" height="14.2"/>
			</g>
		</g>
		<g>
			<g>
				<defs>
					<path id="SVGID_7_" d="M12.2,25.7c0-0.3,0.2-0.5,0.5-0.5h1.5c0.3,0,0.5,0.2,0.5,0.5v3.5c0,0.3-0.2,0.5-0.5,0.5h-1.5
						c-0.3,0-0.5-0.2-0.5-0.5V25.7z"/>
				</defs>
				<use xlink:href="#SVGID_7_"  overflow="visible" fill-rule="evenodd" clip-rule="evenodd" fill="#FFFFFF"/>
				<clipPath id="SVGID_8_">
					<use xlink:href="#SVGID_7_"  overflow="visible"/>
				</clipPath>
				<g clip-path="url(#SVGID_8_)">
					<defs>
						<rect id="SVGID_9_" x="-530.2" y="-98.3" width="742.4" height="426.9"/>
					</defs>
					<use xlink:href="#SVGID_9_"  overflow="visible" fill="#FFFFFF"/>
					<clipPath id="SVGID_10_">
						<use xlink:href="#SVGID_9_"  overflow="visible"/>
					</clipPath>
					<rect x="9.6" y="22.6" clip-path="url(#SVGID_10_)" fill="#FFFFFF" width="7.6" height="9.7"/>
				</g>
			</g>
			<g>
				<defs>
					<path id="SVGID_11_" d="M22.6,16.6c0-0.3,0.2-0.5,0.5-0.5h1.5c0.3,0,0.5,0.2,0.5,0.5v12.6c0,0.3-0.2,0.5-0.5,0.5h-1.5
						c-0.3,0-0.5-0.2-0.5-0.5V16.6z"/>
				</defs>
				<use xlink:href="#SVGID_11_"  overflow="visible" fill-rule="evenodd" clip-rule="evenodd" fill="#FFFFFF"/>
				<clipPath id="SVGID_12_">
					<use xlink:href="#SVGID_11_"  overflow="visible"/>
				</clipPath>
				<g clip-path="url(#SVGID_12_)">
					<defs>
						<rect id="SVGID_13_" x="-530.3" y="-98.3" width="742.4" height="426.9"/>
					</defs>
					<use xlink:href="#SVGID_13_"  overflow="visible" fill="#FFFFFF"/>
					<clipPath id="SVGID_14_">
						<use xlink:href="#SVGID_13_"  overflow="visible"/>
					</clipPath>
					<rect x="20" y="13.5" clip-path="url(#SVGID_14_)" fill="#FFFFFF" width="7.6" height="18.8"/>
				</g>
			</g>
			<g>
				<defs>
					<path id="SVGID_15_" d="M27.7,12c0-0.3,0.2-0.5,0.5-0.5h1.5c0.3,0,0.5,0.2,0.5,0.5v17.1c0,0.3-0.2,0.5-0.5,0.5h-1.5
						c-0.3,0-0.5-0.2-0.5-0.5V12z"/>
				</defs>
				<use xlink:href="#SVGID_15_"  overflow="visible" fill-rule="evenodd" clip-rule="evenodd" fill="#FFFFFF"/>
				<clipPath id="SVGID_16_">
					<use xlink:href="#SVGID_15_"  overflow="visible"/>
				</clipPath>
				<g clip-path="url(#SVGID_16_)">
					<defs>
						<rect id="SVGID_17_" x="-530.2" y="-98.3" width="742.4" height="426.9"/>
					</defs>
					<use xlink:href="#SVGID_17_"  overflow="visible" fill="#FFFFFF"/>
					<clipPath id="SVGID_18_">
						<use xlink:href="#SVGID_17_"  overflow="visible"/>
					</clipPath>
					<rect x="25.2" y="8.9" clip-path="url(#SVGID_18_)" fill="#FFFFFF" width="7.6" height="23.3"/>
				</g>
			</g>
		</g>
	</g>
</g>
</svg>
