<?xml version="1.0" encoding="UTF-8" standalone="no"?>
<svg width="20px" height="20px" viewBox="0 0 20 20" version="1.1" xmlns="http://www.w3.org/2000/svg" xmlns:xlink="http://www.w3.org/1999/xlink">
    <!-- Generator: Sketch 3.7.2 (28276) - http://www.bohemiancoding.com/sketch -->
    <title>Device</title>
    <desc>Created with Sketch.</desc>
    <defs></defs>
    <g id="Page-1" stroke="none" stroke-width="1" fill="none" fill-rule="evenodd">
        <g id="Device" fill="#93939A">
            <g id="Group-12-Copy" transform="translate(1.000000, 3.000000)">
                <g id="Group-10">
                    <path d="M0,2.00585866 C0,0.898053512 0.892622799,-3.55271368e-15 1.99508929,-3.55271368e-15 L16.0049107,-3.55271368e-15 C17.1067681,-3.55271368e-15 18,0.897060126 18,2.00585866 L18,11.9941413 C18,13.1019465 17.1073772,14 16.0049107,14 L1.99508929,14 C0.893231902,14 0,13.1029399 0,11.9941413 L0,2.00585866 Z M0.947368421,3.01880402 C0.947368421,1.91508838 1.83619793,1.02035006 2.95454752,1.02035006 L15.0454525,1.02035006 C16.1539869,1.02035006 17.0526316,1.91777559 17.0526316,3.01880402 L17.0526316,10.9616954 C17.0526316,12.0654111 16.1638021,12.9601494 15.0454525,12.9601494 L2.95454752,12.9601494 C1.84601311,12.9601494 0.947368421,12.0627239 0.947368421,10.9616954 L0.947368421,3.01880402 Z" id="Combined-Shape"></path>
                    <path d="M6.00207343,4.86956522 L3.26860136,4.86956522 C3.16961228,4.86956522 3.08924485,4.92684023 3.08924485,5.00386539 L3.08924485,7.7777558 C3.08924485,7.85478096 3.16961228,7.91304348 3.26860136,7.91304348 L6.00207343,7.91304348 C6.09812228,7.91304348 6.1784897,7.85478096 6.1784897,7.7777558 L6.1784897,5.00386539 C6.1784897,4.92684023 6.10204263,4.86956522 6.00207343,4.86956522 L6.00207343,4.86956522 Z" id="Fill-10"></path>
                    <path d="M6.00207343,8.52173913 L3.26860136,8.52173913 C3.16961228,8.52173913 3.08924485,8.57901414 3.08924485,8.6560393 L3.08924485,11.4299297 C3.08924485,11.5069549 3.16961228,11.5652174 3.26860136,11.5652174 L6.00207343,11.5652174 C6.09812228,11.5652174 6.1784897,11.5069549 6.1784897,11.4299297 L6.1784897,8.6560393 C6.1784897,8.57901414 6.10204263,8.52173913 6.00207343,8.52173913 L6.00207343,8.52173913 Z" id="Fill-10-Copy-3"></path>
                    <path d="M9.70916725,4.86956522 L6.97569518,4.86956522 C6.8767061,4.86956522 6.79633867,4.92684023 6.79633867,5.00386539 L6.79633867,7.7777558 C6.79633867,7.85478096 6.8767061,7.91304348 6.97569518,7.91304348 L9.70916725,7.91304348 C9.8052161,7.91304348 9.88558352,7.85478096 9.88558352,7.7777558 L9.88558352,5.00386539 C9.88558352,4.92684023 9.80913645,4.86956522 9.70916725,4.86956522 L9.70916725,4.86956522 Z" id="Fill-10-Copy"></path>
                    <path d="M9.70916725,8.52173913 L6.97569518,8.52173913 C6.8767061,8.52173913 6.79633867,8.57901414 6.79633867,8.6560393 L6.79633867,11.4299297 C6.79633867,11.5069549 6.8767061,11.5652174 6.97569518,11.5652174 L9.70916725,11.5652174 C9.8052161,11.5652174 9.88558352,11.5069549 9.88558352,11.4299297 L9.88558352,8.6560393 C9.88558352,8.57901414 9.80913645,8.52173913 9.70916725,8.52173913 L9.70916725,8.52173913 Z" id="Fill-10-Copy-4"></path>
                    <path d="M13.4162611,4.86956522 L10.682789,4.86956522 C10.5837999,4.86956522 10.5034325,4.92684023 10.5034325,5.00386539 L10.5034325,7.7777558 C10.5034325,7.85478096 10.5837999,7.91304348 10.682789,7.91304348 L13.4162611,7.91304348 C13.5123099,7.91304348 13.5926773,7.85478096 13.5926773,7.7777558 L13.5926773,5.00386539 C13.5926773,4.92684023 13.5162303,4.86956522 13.4162611,4.86956522 L13.4162611,4.86956522 Z" id="Fill-10-Copy-2"></path>
                </g>
                <path d="M8.91490201,2.43478261 L3.44795795,2.43478261 C3.24997968,2.43478261 3.08924485,2.45769261 3.08924485,2.48850268 L3.08924485,3.59805884 C3.08924485,3.6288689 3.24997968,3.65217391 3.44795795,3.65217391 L8.91490201,3.65217391 C9.10699972,3.65217391 9.26773455,3.6288689 9.26773455,3.59805884 L9.26773455,2.48850268 C9.26773455,2.45769261 9.11484047,2.43478261 8.91490201,2.43478261 L8.91490201,2.43478261 Z" id="Fill-10-path"></path>
            </g>
        </g>
    </g>
</svg>