<?xml version="1.0" encoding="UTF-8" standalone="no"?>
<svg width="20px" height="20px" viewBox="0 0 20 20" version="1.1" xmlns="http://www.w3.org/2000/svg" xmlns:xlink="http://www.w3.org/1999/xlink">
    <!-- Generator: Sketch 3.7.2 (28276) - http://www.bohemiancoding.com/sketch -->
    <title>Templates</title>
    <desc>Created with Sketch.</desc>
    <defs></defs>
    <g id="Page-1" stroke="none" stroke-width="1" fill="none" fill-rule="evenodd">
        <g id="Templates">
            <g id="Group-13-Copy">
                <rect id="Rectangle-89" x="0" y="0" width="20" height="20" rx="100"></rect>
                <path d="M13.8638951,2.5 L4.5,2.5 L4.5,17.5 L16,17.5 L16,4.58061697 L13.8638951,2.5 L13.8638951,2.5 Z M7.9143401,5.5 L6.58708755,5.5 C6.53902285,5.5 6.5,5.5282284 6.5,5.5661908 L6.5,6.9333225 C6.5,6.9712849 6.53902285,7 6.58708755,7 L7.9143401,7 C7.96097715,7 8,6.9712849 8,6.9333225 L8,5.5661908 C8,5.5282284 7.9628807,5.5 7.9143401,5.5 L7.9143401,5.5 Z M7.9143401,8 L6.58708755,8 C6.53902285,8 6.5,8.0282284 6.5,8.0661908 L6.5,9.4333225 C6.5,9.4712849 6.53902285,9.5 6.58708755,9.5 L7.9143401,9.5 C7.96097715,9.5 8,9.4712849 8,9.4333225 L8,8.0661908 C8,8.0282284 7.9628807,8 7.9143401,8 L7.9143401,8 Z M13.714467,5.5 L9.2902919,5.5 C9.13007615,5.5 9,5.5282284 9,5.5661908 L9,6.9333225 C9,6.9712849 9.13007615,7 9.2902919,7 L13.714467,7 C13.8699238,7 14,6.9712849 14,6.9333225 L14,5.5661908 C14,5.5282284 13.876269,5.5 13.714467,5.5 L13.714467,5.5 Z M13.714467,8 L9.2902919,8 C9.13007615,8 9,8.0282284 9,8.0661908 L9,9.4333225 C9,9.4712849 9.13007615,9.5 9.2902919,9.5 L13.714467,9.5 C13.8699238,9.5 14,9.4712849 14,9.4333225 L14,8.0661908 C14,8.0282284 13.876269,8 13.714467,8 L13.714467,8 Z M7.9143401,10.5 L6.58708755,10.5 C6.53902285,10.5 6.5,10.5282284 6.5,10.5661908 L6.5,11.9333225 C6.5,11.9712849 6.53902285,12 6.58708755,12 L7.9143401,12 C7.96097715,12 8,11.9712849 8,11.9333225 L8,10.5661908 C8,10.5282284 7.9628807,10.5 7.9143401,10.5 L7.9143401,10.5 Z M13.714467,10.5 L9.2902919,10.5 C9.13007615,10.5 9,10.5282284 9,10.5661908 L9,11.9333225 C9,11.9712849 9.13007615,12 9.2902919,12 L13.714467,12 C13.8699238,12 14,11.9712849 14,11.9333225 L14,10.5661908 C14,10.5282284 13.876269,10.5 13.714467,10.5 L13.714467,10.5 Z M7.9143401,13 L6.58708755,13 C6.53902285,13 6.5,13.0282284 6.5,13.0661908 L6.5,14.4333225 C6.5,14.4712849 6.53902285,14.5 6.58708755,14.5 L7.9143401,14.5 C7.96097715,14.5 8,14.4712849 8,14.4333225 L8,13.0661908 C8,13.0282284 7.9628807,13 7.9143401,13 L7.9143401,13 Z M13.714467,13 L9.2902919,13 C9.13007615,13 9,13.0282284 9,13.0661908 L9,14.4333225 C9,14.4712849 9.13007615,14.5 9.2902919,14.5 L13.714467,14.5 C13.8699238,14.5 14,14.4712849 14,14.4333225 L14,13.0661908 C14,13.0282284 13.876269,13 13.714467,13 L13.714467,13 Z" id="Fill-10" fill="#93939A"></path>
            </g>
        </g>
    </g>
</svg>