<?xml version="1.0" encoding="UTF-8" standalone="no"?>
<svg width="20px" height="20px" viewBox="0 0 20 20" version="1.1" xmlns="http://www.w3.org/2000/svg" xmlns:xlink="http://www.w3.org/1999/xlink">
    <!-- Generator: Sketch 3.7.2 (28276) - http://www.bohemiancoding.com/sketch -->
    <title>Team</title>
    <desc>Created with Sketch.</desc>
    <defs></defs>
    <g id="Page-1" stroke="none" stroke-width="1" fill="none" fill-rule="evenodd">
        <g id="Team" fill="#93939A">
            <g id="Group-3" transform="translate(2.000000, 2.000000)">
                <path d="M9.91421406,1.67148821 C10.117742,2.91426263 9.06052738,3.97347956 7.82010226,3.76956614 C7.06888625,3.64619144 6.46307259,3.03905339 6.33993111,2.28659163 C6.13640316,1.04381722 7.19361779,-0.0153997114 8.43404291,0.188513708 C9.18508225,0.311888408 9.79089591,0.918849446 9.91421406,1.67148821 L9.91421406,1.67148821 L9.91421406,1.67148821 Z" id="Shape"></path>
                <path d="M9.91969095,3.98746321 C9.81563021,3.92338625 9.68365506,3.92480231 9.58471786,3.99666763 C9.17483518,4.29510341 8.67131551,4.47193458 8.12698425,4.47193458 C7.58265298,4.47193458 7.07913332,4.29510341 6.66925064,3.99666763 C6.57031344,3.9246253 6.43851496,3.92338625 6.33427755,3.98746321 C5.40850806,4.55742953 4.76294284,5.55487061 4.6602955,6.71303514 C4.64474822,6.88774216 4.78485036,7.03819911 4.95993387,7.03819911 L11.2942113,7.03819911 C11.4692948,7.03819911 11.6092203,6.88774216 11.5938497,6.71303514 C11.4910257,5.55487061 10.8454604,4.55742953 9.91969095,3.98746321 L9.91969095,3.98746321 L9.91969095,3.98746321 Z" id="Shape"></path>
                <path d="M5.91361767,9.46498116 C6.13975982,10.846353 4.96470393,12.0238114 3.58594341,11.7970639 C2.75098412,11.6598826 2.07750449,10.9851274 1.94058247,10.1485867 C1.7144403,8.76721492 2.8894962,7.58975653 4.26825673,7.816504 C5.10321601,7.95368534 5.77669565,8.62844051 5.91361767,9.46498116 L5.91361767,9.46498116 L5.91361767,9.46498116 Z" id="Shape"></path>
                <path d="M5.91980124,12.0392111 C5.80408005,11.9678768 5.657441,11.9694699 5.54755003,12.0494775 C5.0919089,12.3811909 4.53238372,12.577847 3.92727674,12.577847 C3.32216977,12.577847 2.76246791,12.3813679 2.30682678,12.0494775 C2.19693582,11.9694699 2.05029676,11.9678768 1.93457557,12.0392111 C0.905452036,12.6727233 0.187804003,13.7815026 0.0738495514,15.068883 C0.0567122153,15.263061 0.212184955,15.4303337 0.406879227,15.4303337 L7.4478509,15.4303337 C7.64254519,15.4303337 7.79801796,15.263238 7.78088059,15.068883 C7.66639615,13.7816796 6.9489248,12.6729003 5.91980124,12.0392111 L5.91980124,12.0392111 L5.91980124,12.0392111 Z" id="Shape"></path>
                <path d="M14.3133855,9.46498116 C14.5395278,10.846353 13.3644718,12.0238114 11.9857113,11.7970639 C11.150752,11.6598826 10.4772724,10.9851274 10.3403504,10.1485867 C10.1142082,8.76721492 11.2892641,7.58975653 12.6680246,7.816504 C13.5029839,7.95368534 14.1764636,8.62844051 14.3133855,9.46498116 L14.3133855,9.46498116 L14.3133855,9.46498116 Z" id="Shape"></path>
                <path d="M14.3195691,12.0392111 C14.203848,11.9678768 14.0572089,11.9694699 13.9473179,12.0494775 C13.4916768,12.3811909 12.9321516,12.577847 12.3270446,12.577847 C11.7219377,12.577847 11.1622358,12.3813679 10.7065947,12.0494775 C10.5967037,11.9694699 10.4500647,11.9678768 10.3343435,12.0392111 C9.30521994,12.6727233 8.58757191,13.7815026 8.47361745,15.068883 C8.45648012,15.263061 8.61195286,15.4303337 8.80664713,15.4303337 L15.8476188,15.4303337 C16.0423131,15.4303337 16.1977858,15.263238 16.1806485,15.068883 C16.066164,13.7816796 15.3486927,12.6729003 14.3195691,12.0392111 L14.3195691,12.0392111 L14.3195691,12.0392111 Z" id="Shape"></path>
            </g>
        </g>
    </g>
</svg>