<?xml version="1.0" encoding="UTF-8" standalone="no"?>
<svg width="22px" height="24px" viewBox="0 0 22 24" version="1.1" xmlns="http://www.w3.org/2000/svg" xmlns:xlink="http://www.w3.org/1999/xlink" xmlns:sketch="http://www.bohemiancoding.com/sketch/ns">
    <!-- Generator: Sketch 3.5.2 (25235) - http://www.bohemiancoding.com/sketch -->
    <title>ico40nav_user</title>
    <desc>Created with Sketch.</desc>
    <defs></defs>
    <g id="Page-1" stroke="none" stroke-width="1" fill="none" fill-rule="evenodd" sketch:type="MSPage">
        <g id="Style-guide-VA-manager" sketch:type="MSArtboardGroup" transform="translate(-190.000000, -6063.000000)">
            <g id="Icons" sketch:type="MSLayerGroup" transform="translate(-20.000000, 5160.000000)">
                <g id="NAV" transform="translate(177.000000, 434.000000)" sketch:type="MSShapeGroup">
                    <g id="ico40nav_user" transform="translate(24.000000, 462.000000)">
                        <rect id="Rectangle-89" x="0" y="0" width="40" height="40" rx="100"></rect>
                        <path d="M25.7189274,12.6412727 C26.3584613,16.8356364 23.0364378,20.4104935 19.1387226,19.7222857 C16.7782206,19.3058961 14.8746078,17.2568052 14.4876676,14.7172468 C13.8481336,10.5228831 17.1701572,6.94802597 21.0678723,7.63623377 C23.4278192,8.05262338 25.331432,10.1011169 25.7189274,12.6412727 L25.7189274,12.6412727 Z" id="Shape" fill="#93939A"></path>
                        <path d="M25.7361371,20.4576883 C25.4091531,20.2414286 24.9944553,20.2462078 24.6835708,20.4887532 C23.3956205,21.495974 21.8134401,22.0927792 20.1030199,22.0927792 C18.3925997,22.0927792 16.8104194,21.495974 15.5224691,20.4887532 C15.2115845,20.2456104 14.7974419,20.2414286 14.4699028,20.4576883 C11.5609115,22.3813247 9.53238981,25.7476883 9.20984708,29.6564935 C9.16099379,30.2461299 9.60122853,30.7539221 10.1513832,30.7539221 L30.0552118,30.7539221 C30.6053665,30.7539221 31.045046,30.2461299 30.9967479,29.6564935 C30.67365,25.7476883 28.6451283,22.3813247 25.7361371,20.4576883 L25.7361371,20.4576883 Z" id="Shape" fill="#93939A"></path>
                    </g>
                </g>
            </g>
        </g>
    </g>
</svg>