<?xml version="1.0" encoding="UTF-8" standalone="no"?>
<svg width="70px" height="15px" viewBox="0 0 70 15" version="1.1" xmlns="http://www.w3.org/2000/svg" xmlns:xlink="http://www.w3.org/1999/xlink" xmlns:sketch="http://www.bohemiancoding.com/sketch/ns">
    <!-- Generator: Sketch 3.3.3 (12081) - http://www.bohemiancoding.com/sketch -->
    <title>Shape Copy</title>
    <desc>Created with Sketch.</desc>
    <defs></defs>
    <g id="instructor---light" stroke="none" stroke-width="1" fill="none" fill-rule="evenodd" sketch:type="MSPage">
        <g id="dashboard_choose_ride" sketch:type="MSArtboardGroup" transform="translate(-714.000000, -541.000000)" fill="#CDCACA">
            <path d="M776.764416,546.741872 L776.764416,546.741872 C771.041263,540.277089 761.730463,540.275138 756.009898,546.741872 C752.194463,551.050753 745.987263,551.050753 742.17269,546.741872 C736.4504,540.275138 727.140463,540.276114 721.418173,546.741872 C719.570853,548.829519 717.115238,549.979139 714.504314,549.979139 L714.501726,549.979139 L714.5,555.507845 L714.504314,555.507845 C718.421563,555.507845 722.105848,553.781953 724.876396,550.65097 L724.876396,550.651945 C728.690968,546.341114 734.898169,546.342089 738.713604,550.651945 C741.574749,553.884336 745.332375,555.50102 749.090863,555.50102 C752.848489,555.50102 756.606977,553.885311 759.467259,550.65292 C763.283557,546.342089 769.489895,546.343064 773.303604,550.65292 L773.303604,550.65292 C776.075015,553.784878 779.760163,555.509795 783.68,555.509795 L783.68,549.981089 C781.06735,549.979139 778.611736,548.830494 776.764416,546.741872 L776.764416,546.741872 Z" id="Shape-Copy" sketch:type="MSShapeGroup"></path>
        </g>
    </g>
</svg>