<?xml version="1.0" encoding="UTF-8" standalone="no"?>
<svg width="55px" height="41px" viewBox="0 0 55 41" version="1.1" xmlns="http://www.w3.org/2000/svg" xmlns:xlink="http://www.w3.org/1999/xlink" xmlns:sketch="http://www.bohemiancoding.com/sketch/ns">
    <!-- Generator: Sketch 3.3.3 (12081) - http://www.bohemiancoding.com/sketch -->
    <title>noun_154486_cc copy</title>
    <desc>Created with Sketch.</desc>
    <defs></defs>
    <g id="instructor---light" stroke="none" stroke-width="1" fill="none" fill-rule="evenodd" sketch:type="MSPage">
        <g id="dashboard_choose_ride" sketch:type="MSArtboardGroup" transform="translate(-405.000000, -232.000000)" stroke="#CDCACA" stroke-width="2" stroke-linecap="round" fill="#CDCACA" stroke-linejoin="round">
            <g id="noun_154486_cc-copy" sketch:type="MSLayerGroup" transform="translate(406.000000, 233.000000)">
                <path d="M52.1609604,35.5479095 L32.5925804,1.67215665 C32.2717873,1.15888767 31.6943597,0.838094553 31.1169321,0.838094553 C30.5395045,0.838094553 29.9620769,1.15888767 29.6412838,1.67215665 L19.3117455,19.5724124 L15.9754971,13.7981364 C15.654704,13.2848674 15.0772764,12.9640743 14.4998488,12.9640743 C13.9224212,12.9640743 13.3449936,13.2848674 13.0242004,13.7981364 L0.44911036,35.5479095 C0.128317246,36.0611785 0.128317246,36.7027647 0.44911036,37.2160337 C0.769903474,37.7293027 1.28317246,38.0500958 1.92475869,38.0500958 L11.5485521,38.0500958 L27.0107802,38.0500958 L50.6853121,38.0500958 C51.2627397,38.0500958 51.8401673,37.7293027 52.1609604,37.2160337 C52.4817535,36.7027647 52.4817535,36.0611785 52.1609604,35.5479095 Z M11.5485521,36.3819716 L9.8162693,36.3819716 L1.92475869,36.3819716 L14.4998488,14.6321985 L18.3493661,21.2405366 L19.3117455,22.9086608 L27.0749388,36.317813 L11.5485521,36.317813 L11.5485521,36.3819716 Z M28.743063,36.3819716 C28.743063,36.0611785 28.6789044,35.804544 28.4864285,35.5479095 L20.2741248,21.3046952 L31.1169321,2.50621875 L50.6853121,36.3819716 L28.743063,36.3819716 L28.743063,36.3819716 Z" id="Shape" sketch:type="MSShapeGroup"></path>
            </g>
        </g>
    </g>
</svg>