<?xml version="1.0" encoding="UTF-8" standalone="no"?>
<svg width="38px" height="45px" viewBox="0 0 38 45" version="1.1" xmlns="http://www.w3.org/2000/svg" xmlns:xlink="http://www.w3.org/1999/xlink" xmlns:sketch="http://www.bohemiancoding.com/sketch/ns">
    <!-- Generator: Sketch 3.3.3 (12081) - http://www.bohemiancoding.com/sketch -->
    <title>noun_58003_cc</title>
    <desc>Created with Sketch.</desc>
    <defs></defs>
    <g id="instructor---light" stroke="none" stroke-width="1" fill="none" fill-rule="evenodd" sketch:type="MSPage">
        <g id="dashboard_choose_ride" sketch:type="MSArtboardGroup" transform="translate(-410.000000, -511.000000)" fill="#CDCACA">
            <g id="noun_58003_cc" sketch:type="MSLayerGroup" transform="translate(410.000000, 511.000000)">
                <path d="M12.4835408,0.430961536 L12.4835408,5.26100906 L25.4410738,5.26100906 L25.4410738,0.430961536 L12.4835408,0.430961536 L12.4835408,0.430961536 Z M18.9623082,7.0722767 C8.65750744,7.0722767 0.303925553,15.4258596 0.303925553,25.7306574 C0.303925553,36.0354553 8.65750744,44.3890382 18.9623082,44.3890382 C29.2671066,44.3890382 37.6206904,36.0354553 37.6206904,25.7306574 C37.6206904,21.3285635 36.0951425,17.2875916 33.5453381,14.0967451 L36.5176748,10.9154156 L33.0576887,7.67603257 L30.1434055,10.7993086 C27.0281195,8.46528861 23.1544957,7.0722767 18.9623082,7.0722767 L18.9623082,7.0722767 Z M18.9623082,11.461118 C26.8473678,11.461118 33.2434599,17.8455968 33.2434599,25.7306574 C33.2434599,33.615718 26.8473678,40.0118077 18.9623082,40.0118077 C11.0772462,40.0118077 4.68115604,33.615718 4.68115604,25.7306574 C4.68115604,17.8455968 11.0772462,11.461118 18.9623082,11.461118 L18.9623082,11.461118 Z M21.2960572,15.1765391 L16.5472823,15.2926461 L16.6285573,27.3445435 L21.3773318,27.2284366 L21.2960572,15.1765391 L21.2960572,15.1765391 Z" id="Shape" sketch:type="MSShapeGroup"></path>
            </g>
        </g>
    </g>
</svg>