<?xml version="1.0" encoding="UTF-8" standalone="no"?>
<svg width="25px" height="29px" viewBox="0 0 25 29" version="1.1" xmlns="http://www.w3.org/2000/svg" xmlns:xlink="http://www.w3.org/1999/xlink" xmlns:sketch="http://www.bohemiancoding.com/sketch/ns">
    <!-- Generator: Sketch 3.4.2 (15857) - http://www.bohemiancoding.com/sketch -->
    <title>noun_99109_cc copy</title>
    <desc>Created with Sketch.</desc>
    <defs></defs>
    <g id="instructor---light" stroke="none" stroke-width="1" fill="none" fill-rule="evenodd" sketch:type="MSPage">
        <g id="dashboard-undo" sketch:type="MSArtboardGroup" transform="translate(-33.000000, -191.000000)" fill="#FFFFFF">
            <g id="Group" sketch:type="MSLayerGroup">
                <g id="noun_99109_cc-copy" transform="translate(33.000000, 191.000000)" sketch:type="MSShapeGroup">
                    <g id="Group">
                        <path d="M22.5111886,7.93254021 L8.53470599,21.9090228 L7.24294017,20.617257 L21.2194228,6.64077439 L22.5111886,7.93254021 L22.5111886,7.93254021 Z" id="Rectangle-path"></path>
                        <path d="M2.98983511,16.4006231 L16.9663177,2.42414045 L18.2580835,3.71590627 L4.28160093,17.6923889 L2.98983511,16.4006231 L2.98983511,16.4006231 Z" id="Rectangle-path"></path>
                        <path d="M6.48637559,19.8740853 L5.13108031,18.5187901 L19.1075629,4.54230744 L20.4628582,5.89760272 L6.48637559,19.8740853 L6.48637559,19.8740853 Z" id="Rectangle-path"></path>
                        <path d="M7.27745267,23.1800344 L1.82685026,17.6994836 L0.179690189,24.8271945 L7.27745267,23.1800344 Z" id="Shape"></path>
                        <path d="M24.2581756,4.13287435 C24.8271945,4.70189329 24.8271945,5.60034423 24.2581756,6.16936317 L23.5693632,6.85817556 L18.0888124,1.37762478 L18.7776248,0.688812392 C19.3466437,0.11979346 20.2450947,0.11979346 20.8141136,0.688812392 L24.2581756,4.13287435 L24.2581756,4.13287435 Z" id="Shape"></path>
                        <rect id="Rectangle-path" x="0.179690189" y="26.5517212" width="24.6774527" height="2.07142857" rx="1"></rect>
                    </g>
                </g>
            </g>
        </g>
    </g>
</svg>