<?xml version="1.0" encoding="UTF-8" standalone="no"?>
<svg width="30px" height="31px" viewBox="0 0 30 31" version="1.1" xmlns="http://www.w3.org/2000/svg" xmlns:xlink="http://www.w3.org/1999/xlink" xmlns:sketch="http://www.bohemiancoding.com/sketch/ns">
    <!-- Generator: Sketch 3.5.2 (25235) - http://www.bohemiancoding.com/sketch -->
    <title>ico40nav_add</title>
    <desc>Created with Sketch.</desc>
    <defs></defs>
    <g id="Page-1" stroke="none" stroke-width="1" fill="none" fill-rule="evenodd" sketch:type="MSPage">
        <g id="Style-guide-VA-manager" sketch:type="MSArtboardGroup" transform="translate(-186.000000, -5681.000000)">
            <g id="Icons" sketch:type="MSLayerGroup" transform="translate(-20.000000, 5160.000000)">
                <g id="NAV" transform="translate(177.000000, 434.000000)" sketch:type="MSShapeGroup">
                    <g id="ico40nav_add" transform="translate(24.000000, 82.335999)">
                        <rect id="Rectangle-89" x="0" y="0" width="40" height="40" rx="100"></rect>
                        <path d="M22,17.6640015 L22,11.6640015 L18,11.6640015 L18,17.6640015 L12,17.6640015 L12,21.6640015 L18,21.6640015 L18,27.6640015 L22,27.6640015 L22,21.6640015 L28,21.6640015 L28,17.6640015 L22,17.6640015 Z M5,20 C5,11.7157288 11.7139073,5 20,5 C28.2842712,5 35,11.7139073 35,20 C35,28.2842712 28.2860927,35 20,35 C11.7157288,35 5,28.2860927 5,20 Z" id="Rectangle" fill="#93939A"></path>
                    </g>
                </g>
            </g>
        </g>
    </g>
</svg>