<?xml version="1.0" encoding="UTF-8" standalone="no"?>
<svg width="31px" height="29px" viewBox="0 0 31 29" version="1.1" xmlns="http://www.w3.org/2000/svg" xmlns:xlink="http://www.w3.org/1999/xlink" xmlns:sketch="http://www.bohemiancoding.com/sketch/ns">
    <!-- Generator: Sketch 3.4.2 (15857) - http://www.bohemiancoding.com/sketch -->
    <title>Shape Copy 10</title>
    <desc>Created with Sketch.</desc>
    <defs></defs>
    <g id="instructor---light" stroke="none" stroke-width="1" fill="none" fill-rule="evenodd" sketch:type="MSPage">
        <g id="dashboard-undo" sketch:type="MSArtboardGroup" transform="translate(-36.000000, -114.000000)" fill="#FFFFFF">
            <g id="Group" sketch:type="MSLayerGroup">
                <path d="M66.6848064,127.481857 L52.0020344,114.279522 C51.5871961,113.907228 50.9198146,113.906884 50.5049764,114.278146 C50.5049764,114.278146 46.9462404,117.462603 43.3939507,120.662887 C35.7876977,127.515921 35.7876977,127.515921 36.0937073,128.191349 C36.2567607,128.554009 36.6488474,128.791768 37.0803702,128.791768 L40.5632673,128.791768 L40.5632673,141.168656 C40.5632673,141.70198 41.039535,142.134488 41.627665,142.134488 L47.5711522,142.134488 C48.1596613,142.134488 48.6355498,141.70198 48.6355498,141.168656 L48.6355498,135.050921 L54.0913935,135.050921 L54.0913935,141.168656 C54.0913935,141.70198 54.5676612,142.134488 55.1561703,142.134488 L61.0560502,142.134488 C61.6445593,142.134488 62.120827,141.70198 62.120827,141.168656 L62.120827,129.134472 L65.9351398,129.134472 C66.3666626,129.134472 66.7553365,128.898089 66.9195275,128.535773 C67.0840977,128.173801 66.9915743,127.757809 66.6848064,127.481857 L66.6848064,127.481857 Z M61.0560502,127.202465 C60.4675411,127.202465 59.9916526,127.634973 59.9916526,128.168296 L59.9916526,140.202825 L56.2209472,140.202825 L56.2209472,134.085089 C56.2209472,133.551766 55.7446795,133.119258 55.1565495,133.119258 L47.5711522,133.119258 C46.982643,133.119258 46.5067545,133.551766 46.5067545,134.085089 L46.5067545,140.202825 L42.6920626,140.202825 L42.6920626,127.825937 C42.6920626,127.292613 42.2157949,126.860105 41.627665,126.860105 L39.5682622,126.860105 C42.1630869,124.483203 47.2905486,119.87116 51.2504718,116.324731 L63.3486573,127.202465 L61.0560502,127.202465 L61.0560502,127.202465 Z" id="Shape-Copy-10" sketch:type="MSShapeGroup"></path>
            </g>
        </g>
    </g>
</svg>