<?xml version="1.0" encoding="UTF-8" standalone="no"?>
<svg width="20px" height="20px" viewBox="0 0 20 20" version="1.1" xmlns="http://www.w3.org/2000/svg" xmlns:xlink="http://www.w3.org/1999/xlink">
    <!-- Generator: Sketch 3.7.2 (28276) - http://www.bohemiancoding.com/sketch -->
    <title>Clubs</title>
    <desc>Created with Sketch.</desc>
    <defs></defs>
    <g id="Page-1" stroke="none" stroke-width="1" fill="none" fill-rule="evenodd">
        <g id="Clubs" fill="#93939A">
            <g id="Group-14-Copy" transform="translate(2.000000, 2.000000)">
                <g id="Group-5">
                    <path d="M0,1.99406028 C0,0.892771196 0.894513756,0 1.99406028,0 L14.0059397,0 C15.1072288,0 16,0.894513756 16,1.99406028 L16,14.0059397 C16,15.1072288 15.1054862,16 14.0059397,16 L1.99406028,16 C0.892771196,16 0,15.1054862 0,14.0059397 L0,1.99406028 Z M5.10468701,11.251675 L5.55267283,11.9171311 L5.99294098,11.246544 L8.83340845,6.88736985 L10.9075229,9.78833719 L11.066805,10.0152712 L11.3440591,10.0152712 L14.2222222,10.0152712 C14.5167741,10.0152712 14.7555556,9.77648978 14.7555556,9.48193791 C14.7555556,9.18738604 14.5167741,8.94860458 14.2222222,8.94860458 L11.7805952,8.94860464 L11.597917,8.94860464 L9.28467571,5.61952665 L8.83340861,4.97659282 L8.4023068,5.63321838 L5.55267292,10.0152713 L2.81279171,5.93714385 C2.64830002,5.69280129 2.31687437,5.62806937 2.07253182,5.79256106 C1.82818926,5.95705275 1.76345734,6.2884784 1.92794903,6.53282095 L5.10468701,11.251675 Z" id="Combined-Shape"></path>
                </g>
            </g>
        </g>
    </g>
</svg>