<?xml version="1.0" encoding="UTF-8" standalone="no"?>
<svg width="20px" height="20px" viewBox="0 0 20 20" version="1.1" xmlns="http://www.w3.org/2000/svg" xmlns:xlink="http://www.w3.org/1999/xlink">
    <!-- Generator: Sketch 3.7.2 (28276) - http://www.bohemiancoding.com/sketch -->
    <title>My Rides</title>
    <desc>Created with Sketch.</desc>
    <defs></defs>
    <g id="Page-1" stroke="none" stroke-width="1" fill="none" fill-rule="evenodd">
        <g id="My-Rides" fill="#93939A">
            <g id="Group-11-Copy" transform="translate(0.000000, 3.000000)">
                <path d="M4.74987729,6.16266885 C3.58220537,6.16266885 2.57089668,6.5861508 1.74416758,7.42065145 C0.918738445,8.25362639 0.5,9.2666005 0.5,10.4318253 C0.5,11.5983746 0.919635135,12.6061782 1.74726753,13.4270641 C2.57383345,14.247107 3.58389029,14.6626689 4.74987729,14.6626689 C5.91591616,14.6626689 6.92597891,14.2471045 7.75254541,13.4270062 C8.58022554,12.6061279 9,11.5982935 9,10.4318253 C9,9.26668236 8.58112306,8.25367853 7.75553012,7.42059405 C6.92891572,6.5861533 5.91760105,6.16266885 4.74987729,6.16266885 L4.74987729,6.16266885 Z M4.74987729,7.16266885 C5.65020693,7.16266885 6.4059047,7.47911463 7.04516823,8.12443066 C7.68565926,8.7707336 8,9.53092913 8,10.4318253 C8,11.3316841 7.68669195,12.0839039 7.04829184,12.7170576 C6.40906767,13.3512797 5.65221106,13.6626689 4.74987729,13.6626689 C3.8475898,13.6626689 3.09072722,13.3512772 2.45152111,12.7171155 C1.81320104,12.0839988 1.5,11.3318093 1.5,10.4318253 C1.5,9.53080319 1.8142339,8.77063702 2.45452947,8.12448806 C3.09389018,7.47911714 3.84959395,7.16266885 4.74987729,7.16266885 L4.74987729,7.16266885 Z" id="Fill-1"></path>
                <path d="M15.2498773,6.16266885 C14.0823006,6.16266885 13.0709969,6.58608028 12.2442245,7.4203549 C11.4186417,8.25375424 11,9.26649426 11,10.4318253 C11,11.5983746 11.4196351,12.6061782 12.2472676,13.4270641 C13.0740235,14.2470257 14.0841116,14.6626689 15.2498773,14.6626689 C16.4156949,14.6626689 17.4257889,14.2470233 18.252487,13.4270641 C19.0802255,12.6061279 19.5,11.5982935 19.5,10.4318253 C19.5,9.26657612 19.0812199,8.25380646 18.255587,7.42041231 C17.4288156,6.58608279 16.4175058,6.16266885 15.2498773,6.16266885 L15.2498773,6.16266885 Z M15.2498773,7.16266885 C16.1501593,7.16266885 16.9059036,7.47908295 17.5452251,8.12424892 C18.1857322,8.77077702 18.5,9.53079616 18.5,10.4318253 C18.5,11.3316841 18.186692,12.0839039 17.5482918,12.7170576 C16.9089487,13.3511891 16.1519964,13.6626689 15.2498773,13.6626689 C14.3478044,13.6626689 13.5908462,13.3511866 12.9514628,12.7170576 C12.313201,12.0839988 12,11.3318093 12,10.4318253 C12,9.53067023 12.314161,8.77068037 12.9545864,8.12419151 C13.5938913,7.47908545 14.3496415,7.16266885 15.2498773,7.16266885 L15.2498773,7.16266885 Z" id="Fill-2"></path>
                <path d="M13.0522073,3.3307209 C13.4292877,3.4177768 13.7818116,3.3533584 14.109565,3.13731695 C14.4374996,2.92156585 14.6450678,2.62483425 14.7322368,2.2472638 C14.8194058,1.86969329 14.7629342,1.51195362 14.5628112,1.17409198 C14.3629239,0.836284755 14.0743275,0.62380239 13.6972471,0.5367465 C13.3201666,0.449690615 12.9676318,0.514156205 12.6396536,0.730096075 C12.3119111,0.946090355 12.1043321,1.24286913 12.0171631,1.62043962 C11.929994,1.9980101 11.9864765,2.35570255 12.1864074,2.693321 C12.3865196,3.03122985 12.6751268,3.243665 13.0522073,3.3307209 L13.0522073,3.3307209 L13.0522073,3.3307209 Z" id="Fill-4"></path>
                <path d="M14.7014727,6.3553376 C14.9269411,6.40739105 15.1114652,6.3505419 15.2554206,6.18487685 C15.3991413,6.01915755 15.4427373,5.83032265 15.3862085,5.61837215 C15.329445,5.40636745 15.1885169,5.27438175 14.9630485,5.22232825 L12.7840688,4.71927115 L11.9055464,2.01041005 L11.8277955,1.83338973 C11.7951933,1.74620355 11.7139205,1.64121718 11.5840459,1.51834704 C11.4538819,1.39565873 11.3013715,1.31405556 11.1259655,1.27355989 L10.9757315,1.23887564 C10.906339,1.19620253 10.7893735,1.18903918 10.6245784,1.21742579 C10.459827,1.24562356 10.3127323,1.31111397 10.1834821,1.4139404 L6.6480219,3.70045275 C6.4261677,3.8613603 6.2802842,4.0930128 6.21055245,4.3950542 C6.1059003,4.84835235 6.21528965,5.2315768 6.53866595,5.5449636 L9.0856516,7.8832502 L8.3619803,11.017815 C8.30965425,11.2444641 8.33485875,11.4491828 8.43773475,11.6320037 C8.54060325,11.8150715 8.70480265,11.9323907 8.93027105,11.9844442 C9.1557394,12.0364977 9.3545624,12.0029888 9.52722465,11.8835323 C9.69987935,11.7643226 9.81246365,11.591415 9.86478975,11.3647659 L10.7628449,7.47486155 L10.8440581,7.29471125 C10.8673057,7.19401505 10.8477244,7.0502148 10.785119,6.86351395 C10.722803,6.6766313 10.6030501,6.50970455 10.4260013,6.3627663 L8.94459045,5.0660863 L11.2039846,3.67836975 L11.7454286,5.2750814 C11.8377404,5.5617256 11.9965566,5.7308585 12.2217902,5.7828578 L14.7014727,6.3553376 L14.7014727,6.3553376 Z" id="Fill-6"></path>
            </g>
        </g>
    </g>
</svg>