<?xml version="1.0" encoding="UTF-8" standalone="no"?>
<svg width="36px" height="28px" viewBox="0 0 36 28" version="1.1" xmlns="http://www.w3.org/2000/svg" xmlns:xlink="http://www.w3.org/1999/xlink" xmlns:sketch="http://www.bohemiancoding.com/sketch/ns">
    <!-- Generator: Sketch 3.5.2 (25235) - http://www.bohemiancoding.com/sketch -->
    <title>ico40nav_myrides</title>
    <desc>Created with Sketch.</desc>
    <defs></defs>
    <g id="Page-1" stroke="none" stroke-width="1" fill="none" fill-rule="evenodd" sketch:type="MSPage">
        <g id="Style-guide-VA-manager" sketch:type="MSArtboardGroup" transform="translate(-183.000000, -5758.000000)">
            <g id="Icons" sketch:type="MSLayerGroup" transform="translate(-20.000000, 5160.000000)">
                <g id="NAV" transform="translate(177.000000, 434.000000)" sketch:type="MSShapeGroup">
                    <g id="ico40nav_myrides" transform="translate(24.000000, 157.674662)">
                        <rect id="Rectangle-89" x="0" y="0" width="40" height="40" rx="100"></rect>
                        <path d="M9.49975458,19.3253377 C7.43177073,19.3253377 5.66476659,20.0652884 4.19874215,21.545094 C2.73281588,23.0244213 2,24.7976243 2,26.8636506 C2,28.9301553 2.73281588,30.6901568 4.19874215,32.1441335 C5.66476659,33.5985885 7.43177073,34.3253377 9.49975458,34.3253377 C11.5678366,34.3253377 13.3348407,33.5985885 14.800767,32.1441335 C16.2667914,30.6901568 17,28.9301553 17,26.8636506 C17,24.7976243 16.2667914,23.0244213 14.800767,21.545094 C13.3348407,20.0652884 11.5678366,19.3253377 9.49975458,19.3253377 L9.49975458,19.3253377 Z" id="Fill-1" stroke="#93939A" stroke-width="2"></path>
                        <path d="M30.4997546,19.3253377 C28.4317707,19.3253377 26.6647666,20.0652884 25.1987422,21.5446157 C23.7328159,23.0244213 23,24.7971459 23,26.8636506 C23,28.9301553 23.7328159,30.6901568 25.1987422,32.1441335 C26.6647666,33.5981102 28.4317707,34.3253377 30.4997546,34.3253377 C32.5678366,34.3253377 34.3348407,33.5981102 35.800767,32.1441335 C37.2667914,30.6901568 38,28.9301553 38,26.8636506 C38,24.7971459 37.2667914,23.0244213 35.800767,21.5446157 C34.3348407,20.0652884 32.5678366,19.3253377 30.4997546,19.3253377 Z" id="Fill-2" stroke="#93939A" stroke-width="2"></path>
                        <path d="M26.1044145,12.6614418 C26.8585754,12.8355536 27.5636232,12.7067168 28.21913,12.2746339 C28.8749992,11.8431317 29.2901355,11.2496685 29.4644735,10.4945276 C29.6388115,9.73938658 29.5258684,9.02390725 29.1256224,8.34818397 C28.7258477,7.67256951 28.148655,7.24760478 27.3944941,7.073493 C26.6403331,6.89938123 25.9352636,7.02831241 25.2793072,7.46019215 C24.6238222,7.89218071 24.2086641,8.48573826 24.0343261,9.24087924 C23.859988,9.99602021 23.972953,10.7114051 24.3728148,11.386642 C24.7730391,12.0624597 25.3502535,12.48733 26.1044145,12.6614418 L26.1044145,12.6614418 Z" id="Fill-4" fill="#93939A"></path>
                        <path d="M29.4029454,18.7106752 C29.8538822,18.8147821 30.2229303,18.7010838 30.5108412,18.3697537 C30.7982825,18.0383151 30.8854745,17.6606453 30.772417,17.2367443 C30.65889,16.8127349 30.3770338,16.5487635 29.926097,16.4446565 L25.5681375,15.4385423 L23.8110927,10.0208201 L23.6555909,9.66677945 C23.5903866,9.4924071 23.427841,9.28243436 23.1680917,9.03669408 C22.9077637,8.79131746 22.602743,8.62811112 22.2519309,8.54711977 L21.951463,8.47775127 C21.8126779,8.39240506 21.5787469,8.37807836 21.2491568,8.43485157 C20.919654,8.49124711 20.6254645,8.62222794 20.3669642,8.82788079 L13.2960438,13.4009055 C12.8523354,13.7227206 12.5605684,14.1860256 12.4211049,14.7901084 C12.2118006,15.6967047 12.4305793,16.4631536 13.0773319,17.0899272 L18.1713032,21.7665004 L16.7239606,28.0356299 C16.6193085,28.4889281 16.6697175,28.8983656 16.8754695,29.2640074 C17.0812065,29.630143 17.4096053,29.8647814 17.8605421,29.9688883 C18.3114788,30.0729953 18.7091248,30.0059776 19.0544493,29.7670645 C19.3997587,29.5286452 19.6249273,29.1828299 19.7295795,28.7295317 L21.5256898,20.9497231 L21.6881162,20.5894225 C21.7346113,20.3880301 21.6954488,20.1004296 21.570238,19.7270279 C21.4456059,19.3532626 21.2061002,19.0194091 20.8520026,18.7255326 L17.8891809,16.1321726 L22.4079691,13.3567395 L23.4908572,16.5501628 C23.6754807,17.1234512 23.9931132,17.461717 24.4435804,17.5657156 L29.4029454,18.7106752 Z" id="Fill-6" fill="#93939A"></path>
                    </g>
                </g>
            </g>
        </g>
    </g>
</svg>