<?xml version="1.0" encoding="UTF-8" standalone="no"?>
<svg width="35px" height="28px" viewBox="0 0 35 28" version="1.1" xmlns="http://www.w3.org/2000/svg" xmlns:xlink="http://www.w3.org/1999/xlink" xmlns:sketch="http://www.bohemiancoding.com/sketch/ns">
    <!-- Generator: Sketch 3.4.2 (15857) - http://www.bohemiancoding.com/sketch -->
    <title>Imported Layers Copy</title>
    <desc>Created with Sketch.</desc>
    <defs></defs>
    <g id="instructor---light" stroke="none" stroke-width="1" fill="none" fill-rule="evenodd" sketch:type="MSPage">
        <g id="dashboard-undo" sketch:type="MSArtboardGroup" transform="translate(-29.000000, -276.000000)" fill="#FFFFFF">
            <g id="Group" sketch:type="MSLayerGroup">
                <g id="Imported-Layers-Copy" transform="translate(29.000000, 276.000000)" sketch:type="MSShapeGroup">
                    <path d="M27.7473967,14.4194242 C23.880262,14.4194242 20.717231,17.455934 20.717231,21.1683833 C20.717231,24.8812252 23.880262,27.9173984 27.7473967,27.9173984 C31.6149404,27.9173984 34.7890753,24.8812252 34.7890753,21.1683833 C34.7890753,17.455934 31.6149404,14.4194242 27.7473967,14.4194242 L27.7473967,14.4194242 Z M27.7473967,25.5154234 C25.2311381,25.5154234 23.2189377,23.5840476 23.2189377,21.1681027 C23.2189377,18.7521017 25.2307874,16.820726 27.7473967,16.820726 C30.2640644,16.820726 32.2874271,18.7521017 32.2874271,21.1681027 C32.2874271,23.5840476 30.2637137,25.5154234 27.7473967,25.5154234 L27.7473967,25.5154234 Z" id="Fill-1"></path>
                    <path d="M7.03016569,14.4194242 C3.16303105,14.4194242 0,17.455934 0,21.1683833 C0,24.8812252 3.16303105,27.9173984 7.03016569,27.9173984 C10.8973588,27.9173984 14.0603314,24.8812252 14.0603314,21.1683833 C14.060682,17.455934 10.897651,14.4194242 7.03016569,14.4194242 L7.03016569,14.4194242 Z M7.03016569,25.5154234 C4.51390707,25.5154234 2.50170667,23.5840476 2.50170667,21.1681027 C2.50170667,18.7521017 4.51355642,16.820726 7.03016569,16.820726 C9.54648274,16.820726 11.5586831,18.7521017 11.5586831,21.1681027 C11.5586831,23.5840476 9.54648274,25.5154234 7.03016569,25.5154234 L7.03016569,25.5154234 Z" id="Fill-2"></path>
                    <path d="M18.5436151,4.73583996 C18.3335178,4.7408332 18.1251153,4.7972737 17.9435374,4.8988217 C17.765057,4.99565699 17.611648,5.13490679 17.5020116,5.30091815 L14.5244156,9.9091218 L10.5393459,11.9413162 C10.3862876,12.009819 10.2446837,12.1033442 10.13195,12.2238553 C10.0192747,12.3447592 9.93681374,12.4943882 9.8828722,12.6477201 C9.82893067,12.8013325 9.80146315,12.9643142 9.81502158,13.1259495 C9.82863846,13.2875847 9.88322285,13.4498932 9.96217736,13.5931825 C10.0411903,13.7368084 10.1476123,13.8606857 10.2791058,13.9625704 C10.410307,14.0643989 10.5689173,14.1362119 10.7317355,14.1796363 C10.8945536,14.2237339 11.062573,14.2444362 11.2298911,14.2233973 C11.3972676,14.2020217 11.5600857,14.1435615 11.7054883,14.0604155 L15.9960318,11.8758991 C16.1898239,11.7777173 16.3553888,11.6300519 16.4715706,11.4520905 L18.509193,8.3003433 L21.2828866,13.0715287 L16.3247654,16.5057588 C16.1570967,16.6447281 16.0339604,16.8260558 15.9622526,17.0274687 C15.8909539,17.2288255 15.8721942,17.4495943 15.9170773,17.657964 L17.4679402,24.9503452 C17.4954078,25.1092875 17.5587584,25.260263 17.6491674,25.395866 C17.7392843,25.5318057 17.8614271,25.6530462 18.0002257,25.7438784 C18.1390244,25.8347105 18.2879334,25.8968175 18.4531476,25.9285723 C18.6180696,25.960271 18.7871409,25.9616175 18.9513616,25.9285723 C19.1155824,25.895471 19.2776407,25.836057 19.4154459,25.7438784 C19.5531925,25.6516997 19.6659263,25.532479 19.7553418,25.395866 C19.8444067,25.2595897 19.9101534,25.0986277 19.936569,24.9396294 C19.9626924,24.7800138 19.9550365,24.6177053 19.9139521,24.4614 L18.510245,17.8643702 L23.6840738,14.2451095 C23.8983789,14.0664186 24.0427295,13.8182712 24.0914113,13.5497581 C24.1405022,13.281245 24.0935152,12.9943859 23.9554179,12.7562249 L19.6530691,5.3553389 C19.5444848,5.16666158 19.3830692,5.00732659 19.1889849,4.8988217 C18.9948421,4.79059734 18.7680306,4.73314697 18.5436151,4.73583996" id="Fill-3"></path>
                    <path d="M15.704467,0.00807895742 C15.293623,0.0123989555 14.8768765,0.117930337 14.4931494,0.323326609 C13.2671629,0.980639561 12.8225397,2.46980461 13.5082342,3.64905187 C14.1935781,4.82801862 15.7466033,5.2407748 16.9725314,4.58351795 C18.1999204,3.92592448 18.643141,2.43709605 17.9577972,1.25779268 C17.4860571,0.44726006 16.6083237,-0.00162701226 15.704467,0.00807895742" id="Fill-4"></path>
                </g>
            </g>
        </g>
    </g>
</svg>