<?xml version="1.0" encoding="UTF-8" standalone="no"?>
<svg width="23px" height="30px" viewBox="0 0 23 30" version="1.1" xmlns="http://www.w3.org/2000/svg" xmlns:xlink="http://www.w3.org/1999/xlink" xmlns:sketch="http://www.bohemiancoding.com/sketch/ns">
    <!-- Generator: Sketch 3.5.2 (25235) - http://www.bohemiancoding.com/sketch -->
    <title>ico40nav_templates</title>
    <desc>Created with Sketch.</desc>
    <defs></defs>
    <g id="Page-1" stroke="none" stroke-width="1" fill="none" fill-rule="evenodd" sketch:type="MSPage">
        <g id="Style-guide-VA-manager" sketch:type="MSArtboardGroup" transform="translate(-191.000000, -5830.000000)">
            <g id="Icons" sketch:type="MSLayerGroup" transform="translate(-20.000000, 5160.000000)">
                <g id="NAV" transform="translate(177.000000, 434.000000)" sketch:type="MSShapeGroup">
                    <g id="ico40nav_templates" transform="translate(25.000000, 231.000000)">
                        <rect id="Rectangle-89" x="0" y="0" width="40" height="40" rx="100"></rect>
                        <path d="M27.7277902,5 L9,5 L9,35 L32,35 L32,9.16123394 L27.7277902,5 Z M15.8286802,11 L13.1741751,11 C13.0780457,11 13,11.0564568 13,11.1323816 L13,13.866645 C13,13.9425698 13.0780457,14 13.1741751,14 L15.8286802,14 C15.9219543,14 16,13.9425698 16,13.866645 L16,11.1323816 C16,11.0564568 15.9257614,11 15.8286802,11 Z M15.8286802,16 L13.1741751,16 C13.0780457,16 13,16.0564568 13,16.1323816 L13,18.866645 C13,18.9425698 13.0780457,19 13.1741751,19 L15.8286802,19 C15.9219543,19 16,18.9425698 16,18.866645 L16,16.1323816 C16,16.0564568 15.9257614,16 15.8286802,16 Z M27.428934,11 L18.5805838,11 C18.2601523,11 18,11.0564568 18,11.1323816 L18,13.866645 C18,13.9425698 18.2601523,14 18.5805838,14 L27.428934,14 C27.7398477,14 28,13.9425698 28,13.866645 L28,11.1323816 C28,11.0564568 27.7525381,11 27.428934,11 Z M27.428934,16 L18.5805838,16 C18.2601523,16 18,16.0564568 18,16.1323816 L18,18.866645 C18,18.9425698 18.2601523,19 18.5805838,19 L27.428934,19 C27.7398477,19 28,18.9425698 28,18.866645 L28,16.1323816 C28,16.0564568 27.7525381,16 27.428934,16 Z M15.8286802,21 L13.1741751,21 C13.0780457,21 13,21.0564568 13,21.1323816 L13,23.866645 C13,23.9425698 13.0780457,24 13.1741751,24 L15.8286802,24 C15.9219543,24 16,23.9425698 16,23.866645 L16,21.1323816 C16,21.0564568 15.9257614,21 15.8286802,21 Z M27.428934,21 L18.5805838,21 C18.2601523,21 18,21.0564568 18,21.1323816 L18,23.866645 C18,23.9425698 18.2601523,24 18.5805838,24 L27.428934,24 C27.7398477,24 28,23.9425698 28,23.866645 L28,21.1323816 C28,21.0564568 27.7525381,21 27.428934,21 Z M15.8286802,26 L13.1741751,26 C13.0780457,26 13,26.0564568 13,26.1323816 L13,28.866645 C13,28.9425698 13.0780457,29 13.1741751,29 L15.8286802,29 C15.9219543,29 16,28.9425698 16,28.866645 L16,26.1323816 C16,26.0564568 15.9257614,26 15.8286802,26 Z M27.428934,26 L18.5805838,26 C18.2601523,26 18,26.0564568 18,26.1323816 L18,28.866645 C18,28.9425698 18.2601523,29 18.5805838,29 L27.428934,29 C27.7398477,29 28,28.9425698 28,28.866645 L28,26.1323816 C28,26.0564568 27.7525381,26 27.428934,26 Z" id="Fill-10" fill="#93939A"></path>
                    </g>
                </g>
            </g>
        </g>
    </g>
</svg>