<?xml version="1.0" encoding="UTF-8" standalone="no"?>
<svg width="40px" height="40px" viewBox="0 0 40 40" version="1.1" xmlns="http://www.w3.org/2000/svg" xmlns:xlink="http://www.w3.org/1999/xlink">
    <!-- Generator: Sketch 3.6.1 (26313) - http://www.bohemiancoding.com/sketch -->
    <title>ico40nav_team</title>
    <desc>Created with Sketch.</desc>
    <defs></defs>
    <g id="Page-1" stroke="none" stroke-width="1" fill="none" fill-rule="evenodd">
        <g id="Style-guide-VA-manager" transform="translate(-182.000000, -5899.000000)">
            <g id="Icons" transform="translate(-20.000000, 5160.000000)">
                <g id="NAV" transform="translate(177.000000, 434.000000)">
                    <g id="ico40nav_team" transform="translate(25.000000, 305.000000)">
                        <rect id="Rectangle-89" x="0" y="0" width="40" height="40" rx="100"></rect>
                        <g id="Group" transform="translate(6.000000, 5.000000)" fill="#93939A">
                            <g transform="translate(7.751553, 0.000000)" id="Shape">
                                <path d="M8.97868323,2.82063636 C9.32213665,4.91781818 7.53808696,6.70524675 5.44486957,6.36114286 C4.17719255,6.15294805 3.15488199,5.1284026 2.94708075,3.85862338 C2.60362733,1.76144156 4.38767702,-0.025987013 6.48089441,0.318116883 C7.74827329,0.526311688 8.77058385,1.55055844 8.97868323,2.82063636 L8.97868323,2.82063636 Z"></path>
                                <path d="M8.98792547,6.72884416 C8.81232298,6.62071429 8.58961491,6.6231039 8.42265839,6.74437662 C7.73098137,7.24798701 6.88129193,7.54638961 5.96273292,7.54638961 C5.04417391,7.54638961 4.19448447,7.24798701 3.50280745,6.74437662 C3.33585093,6.62280519 3.11344099,6.62071429 2.93754037,6.72884416 C1.37530435,7.69066234 0.285913043,9.37384416 0.112695652,11.3282468 C0.0864596273,11.6230649 0.322881988,11.876961 0.618335404,11.876961 L11.3074286,11.876961 C11.602882,11.876961 11.8390062,11.6230649 11.8130683,11.3282468 C11.6395528,9.37384416 10.5501615,7.69066234 8.98792547,6.72884416 L8.98792547,6.72884416 Z"></path>
                            </g>
                            <g transform="translate(0.000000, 13.142857)" id="Shape">
                                <path d="M9.97922981,2.8292987 C10.3608447,5.16036364 8.37793789,7.14732468 6.0512795,6.76468831 C4.64228571,6.53319481 3.50578882,5.39454545 3.27473292,3.98288312 C2.89311801,1.65181818 4.87602484,-0.335142857 7.20268323,0.0474935065 C8.61167702,0.278987013 9.74817391,1.41763636 9.97922981,2.8292987 L9.97922981,2.8292987 Z"></path>
                                <path d="M9.9896646,7.17331169 C9.79438509,7.05293506 9.54693168,7.05562338 9.36149068,7.19063636 C8.59259627,7.7504026 7.64839752,8.08225974 6.6272795,8.08225974 C5.60616149,8.08225974 4.6616646,7.7507013 3.89277019,7.19063636 C3.70732919,7.05562338 3.45987578,7.05293506 3.26459627,7.17331169 C1.52795031,8.24236364 0.316919255,10.1134286 0.124621118,12.2858831 C0.0957018634,12.6135584 0.358062112,12.8958312 0.686608696,12.8958312 L12.5682484,12.8958312 C12.896795,12.8958312 13.1591553,12.6138571 13.130236,12.2858831 C12.9370435,10.1137273 11.7263106,8.24266234 9.9896646,7.17331169 L9.9896646,7.17331169 Z"></path>
                            </g>
                            <g transform="translate(14.012422, 13.142857)" id="Shape">
                                <path d="M10.1414161,2.8292987 C10.5230311,5.16036364 8.54012422,7.14732468 6.21346584,6.76468831 C4.80447205,6.53319481 3.66797516,5.39454545 3.43691925,3.98288312 C3.05530435,1.65181818 5.03821118,-0.335142857 7.36486957,0.0474935065 C8.77386335,0.278987013 9.91036025,1.41763636 10.1414161,2.8292987 L10.1414161,2.8292987 Z"></path>
                                <path d="M10.1518509,7.17331169 C9.95657143,7.05293506 9.70911801,7.05562338 9.52367702,7.19063636 C8.75478261,7.7504026 7.81058385,8.08225974 6.78946584,8.08225974 C5.76834783,8.08225974 4.82385093,7.7507013 4.05495652,7.19063636 C3.86951553,7.05562338 3.62206211,7.05293506 3.42678261,7.17331169 C1.69013665,8.24236364 0.47910559,10.1134286 0.286807453,12.2858831 C0.257888199,12.6135584 0.520248447,12.8958312 0.848795031,12.8958312 L12.7304348,12.8958312 C13.0589814,12.8958312 13.3213416,12.6138571 13.2924224,12.2858831 C13.0992298,10.1137273 11.8884969,8.24266234 10.1518509,7.17331169 L10.1518509,7.17331169 Z"></path>
                            </g>
                        </g>
                    </g>
                </g>
            </g>
        </g>
    </g>
</svg>