<?xml version="1.0" encoding="UTF-8" standalone="no"?>
<svg width="21px" height="24px" viewBox="0 0 21 24" version="1.1" xmlns="http://www.w3.org/2000/svg" xmlns:xlink="http://www.w3.org/1999/xlink" xmlns:sketch="http://www.bohemiancoding.com/sketch/ns">
    <!-- Generator: Sketch 3.4.2 (15857) - http://www.bohemiancoding.com/sketch -->
    <title>noun_41368_cc</title>
    <desc>Created with Sketch.</desc>
    <defs></defs>
    <g id="instructor---light" stroke="none" stroke-width="1" fill="none" fill-rule="evenodd" sketch:type="MSPage">
        <g id="dashboard-undo" sketch:type="MSArtboardGroup" transform="translate(-36.000000, -744.000000)">
            <g id="Group" sketch:type="MSLayerGroup">
                <g id="Group-Copy-11" sketch:type="MSShapeGroup">
                    <g id="noun_41368_cc" transform="translate(35.958333, 744.000000)">
                        <path d="M10.3168904,0.122974274 C10.0332304,0.121404452 9.7416032,0.137540433 9.44290244,0.171948174 C6.67036096,0.490789217 5.01450004,2.55834319 4.83567394,5.22034657 C4.65390015,7.93246055 5.65979697,9.93590242 6.72906898,11.4048311 C7.19652237,12.0476716 7.68731159,12.4608385 7.61288259,13.2353422 C7.5244521,14.1508435 6.54582135,14.4060637 5.84574664,14.6865848 C5.01572824,15.0204099 4.1225803,15.5264288 3.69983343,15.7597871 C2.24638008,16.563522 0.650455379,17.5298707 0.291820616,18.8519065 C-0.502825589,21.7833773 2.17956593,22.6708755 4.39376713,23.0806034 C6.29477702,23.4313777 8.43700563,23.4586438 10.1999657,23.4586438 C10.2385718,23.4586438 10.2775507,23.4586249 10.3168895,23.4585834 L10.3168904,0.122974274 Z" id="Shape" fill="#5E5E69"></path>
                        <path d="M20.1425004,0.122974274 C19.8588404,0.121404452 19.5672132,0.137540433 19.2685124,0.171948174 C16.4959709,0.490789217 14.84011,2.55834319 14.6612839,5.22034657 C14.4795101,7.93246055 15.4854069,9.93590242 16.5546789,11.4048311 C17.0221323,12.0476716 17.5129215,12.4608385 17.4384925,13.2353422 C17.3500621,14.1508435 16.3714313,14.4060637 15.6713566,14.6865848 C14.8413382,15.0204099 13.9481902,15.5264288 13.5254434,15.7597871 C12.07199,16.563522 10.4760653,17.5298707 10.1174306,18.8519065 C9.32278436,21.7833773 12.0051759,22.6708755 14.2193771,23.0806034 C16.120387,23.4313777 18.2626156,23.4586438 20.0255756,23.4586438 C20.0641817,23.4586438 20.1031607,23.4586249 20.1424994,23.4585834 L20.1425004,0.122974274 Z" id="Shape-Copy-9" fill="#5D5E68" transform="translate(15.058589, 11.790757) scale(-1, 1) translate(-15.058589, -11.790757) "></path>
                    </g>
                </g>
            </g>
        </g>
    </g>
</svg>