<?xml version="1.0" encoding="utf-8"?>
<!-- Generator: Adobe Illustrator 18.1.0, SVG Export Plug-In . SVG Version: 6.00 Build 0)  -->
<!DOCTYPE svg PUBLIC "-//W3C//DTD SVG 1.1//EN" "http://www.w3.org/Graphics/SVG/1.1/DTD/svg11.dtd">
<svg version="1.1" id="Layer_1" xmlns:sketch="http://www.bohemiancoding.com/sketch/ns"
	 xmlns="http://www.w3.org/2000/svg" xmlns:xlink="http://www.w3.org/1999/xlink" x="0px" y="0px" viewBox="57.5 13.5 14 14"
	 enable-background="new 57.5 13.5 14 14" xml:space="preserve">
<g>
	<path fill="#6DAA24" d="M64.5,13.5c-3.9,0-7,3.1-7,7c0,3.9,3.1,7,7,7c3.9,0,7-3.1,7-7C71.5,16.6,68.3,13.5,64.5,13.5z M64.5,25.3
		c-2.7,0-4.8-2.2-4.8-4.8c0-2.7,2.2-4.8,4.8-4.8c2.7,0,4.8,2.2,4.8,4.8C69.3,23.1,67.2,25.3,64.5,25.3z"/>
	<path fill="#6DAA24" d="M67,20h-2v-2.2c0-0.6-0.4-1.1-1-1.1c-0.6,0-1,0.5-1,1.1v3.1c0,0.6,0.6,1.1,1.2,1.1H67c0.6,0,1.1-0.4,1.1-1
		S67.6,20,67,20z"/>
</g>
</svg>
