<?xml version="1.0" encoding="UTF-8" standalone="no"?>
<svg width="27px" height="27px" viewBox="0 0 27 27" version="1.1" xmlns="http://www.w3.org/2000/svg" xmlns:xlink="http://www.w3.org/1999/xlink" xmlns:sketch="http://www.bohemiancoding.com/sketch/ns">
    <!-- Generator: Sketch 3.3.3 (12081) - http://www.bohemiancoding.com/sketch -->
    <title>noun_5206_cc copy 11</title>
    <desc>Created with Sketch.</desc>
    <defs></defs>
    <g id="instructor---light" stroke="none" stroke-width="1" fill="none" fill-rule="evenodd" sketch:type="MSPage">
        <g id="dashboard_view_ride" sketch:type="MSArtboardGroup" transform="translate(-1308.000000, -490.000000)">
            <g id="noun_5206_cc-copy-11" sketch:type="MSLayerGroup" transform="translate(1309.000000, 491.000000)">
                <path d="M12.5016794,24.9549077 C5.62472095,24.9549077 0.0464808559,19.379032 0.0464808559,12.5020736 C0.0464808559,5.62207525 5.62472095,0.0472128378 12.5016794,0.0472128378 C19.3789755,0.0472128378 24.9562023,5.62207525 24.9562023,12.5020736 C24.9562023,19.379032 19.3789755,24.9549077 12.5016794,24.9549077 L12.5016794,24.9549077 Z" id="Shape" stroke="#959595" sketch:type="MSShapeGroup"></path>
                <path d="M9.70689868,7.81218547 C9.47694612,7.58112336 8.88888889,7.58112336 8.88888889,7.81218547 L8.88888889,17.2002972 C8.88888889,17.4316367 9.47833304,17.4316367 9.70911777,17.2002972 L17.4151639,12.9238452 C17.6459486,12.6938926 17.649832,12.3196996 17.4196021,12.0889149 L9.70689868,7.81218547 L9.70689868,7.81218547 Z" id="Shape" fill="#4A4A4A" sketch:type="MSShapeGroup"></path>
            </g>
        </g>
    </g>
</svg>