<?xml version="1.0" encoding="UTF-8" standalone="no"?>
<svg width="15px" height="19px" viewBox="0 0 15 19" version="1.1" xmlns="http://www.w3.org/2000/svg" xmlns:xlink="http://www.w3.org/1999/xlink" xmlns:sketch="http://www.bohemiancoding.com/sketch/ns">
    <!-- Generator: Sketch 3.3.3 (12081) - http://www.bohemiancoding.com/sketch -->
    <title>noun_3823_cc (1)</title>
    <desc>Created with Sketch.</desc>
    <defs></defs>
    <g id="instructor---light" stroke="none" stroke-width="1" fill="none" fill-rule="evenodd" sketch:type="MSPage">
        <g id="dashboard_choose_goals-2" sketch:type="MSArtboardGroup" transform="translate(-684.000000, -297.000000)" fill="#F42640">
            <g id="noun_3823_cc-(1)" sketch:type="MSLayerGroup" transform="translate(684.000000, 297.000000)">
                <path d="M13.6410759,1.28107595 L8.84050633,1.28107595 L8.84050633,0 L6.10917722,0 L6.10917722,1.28107595 L1.30841772,1.28107595 L1.30841772,3.00018987 L13.6410759,3.00018987 L13.6410759,1.28107595 Z" id="Shape" sketch:type="MSShapeGroup"></path>
                <path d="M13.6410759,3.92696203 L13.6410759,3.92696203 L1.30841772,3.92696203 L0,3.92696203 L0,5.64607595 L1.41607595,5.64607595 L2.25037975,18.9873418 L12.6993038,18.9873418 L13.5336076,5.64607595 L14.9496835,5.64607595 L14.9496835,3.92696203 L13.6410759,3.92696203 L13.6410759,3.92696203 Z M3.88044304,17.2520886 L3.1556962,5.66202532 L4.68835443,5.66202532 L4.92949367,17.2520886 L3.88044304,17.2520886 L3.88044304,17.2520886 Z M8.0006962,17.2520886 L6.94879747,17.2520886 L6.71012658,5.66202532 L8.23936709,5.66202532 L8.0006962,17.2520886 L8.0006962,17.2520886 Z M11.0692405,17.2520886 L10.0203797,17.2520886 L10.2617089,5.66202532 L11.7941772,5.66202532 L11.0692405,17.2520886 L11.0692405,17.2520886 Z" id="Shape" sketch:type="MSShapeGroup"></path>
            </g>
        </g>
    </g>
</svg>