<?xml version="1.0" encoding="UTF-8" standalone="no"?>
<svg width="15px" height="16px" viewBox="0 0 15 16" version="1.1" xmlns="http://www.w3.org/2000/svg" xmlns:xlink="http://www.w3.org/1999/xlink" xmlns:sketch="http://www.bohemiancoding.com/sketch/ns">
    <!-- Generator: Sketch 3.3.3 (12081) - http://www.bohemiancoding.com/sketch -->
    <title>Shape</title>
    <desc>Created with Sketch.</desc>
    <defs></defs>
    <g id="instructor---light" stroke="none" stroke-width="1" fill="none" fill-rule="evenodd" sketch:type="MSPage">
        <g id="dashboard_homepage" sketch:type="MSArtboardGroup" transform="translate(-1328.000000, -48.000000)" fill="#CDCACA">
            <g id="noun_15440_cc" sketch:type="MSLayerGroup" transform="translate(1328.250000, 47.966142)">
                <path d="M13.5523621,12.5024535 L11.0502296,10.0000002 C11.7299895,9.02103041 12.1296312,7.83221265 12.1296312,6.55226823 C12.1296312,3.20817681 9.40834549,0.488014165 6.0644145,0.488014165 C2.72032308,0.488014165 0,3.20817681 0,6.55226823 C0,9.89716183 2.72032308,12.617164 6.0644145,12.617164 C6.98594881,12.617164 7.85951328,12.4102039 8.6424324,12.0407238 L11.3284225,14.7270348 C11.6180064,15.015656 12.0044925,15.1746463 12.4156854,15.1746463 C12.8371462,15.1746463 13.2348627,15.0090782 13.535356,14.7092266 C14.1482149,14.0962073 14.1557553,13.1055259 13.5523621,12.5024535 L13.5523621,12.5024535 Z M2.42560537,6.55226823 C2.42560537,4.54603798 4.05818425,2.91329866 6.0644145,2.91329866 C8.07096562,2.91329866 9.7035445,4.54603798 9.7035445,6.55226823 C9.7035445,8.55914021 8.07096562,10.1917191 6.0644145,10.1917191 C4.05818425,10.1917191 2.42560537,8.55914021 2.42560537,6.55226823 L2.42560537,6.55226823 Z" id="Shape" sketch:type="MSShapeGroup"></path>
            </g>
        </g>
    </g>
</svg>