<?xml version="1.0" encoding="UTF-8" standalone="no"?>
<svg width="15px" height="16px" viewBox="0 0 15 16" version="1.1" xmlns="http://www.w3.org/2000/svg" xmlns:xlink="http://www.w3.org/1999/xlink" xmlns:sketch="http://www.bohemiancoding.com/sketch/ns">
    <!-- Generator: Sketch 3.4.2 (15857) - http://www.bohemiancoding.com/sketch -->
    <title>noun_24732_cc (1)@1x</title>
    <desc>Created with Sketch.</desc>
    <defs></defs>
    <g id="instructor---light" stroke="none" stroke-width="1" fill="none" fill-rule="evenodd" sketch:type="MSPage">
        <g id="dashboard-undo" sketch:type="MSArtboardGroup" transform="translate(-586.000000, -456.000000)" fill="#6DAA24">
            <g id="noun_24732_cc-(1)" sketch:type="MSLayerGroup" transform="translate(586.000000, 456.000000)">
                <g id="Group" sketch:type="MSShapeGroup">
                    <path d="M7.50309091,2.72790909 C9.08293939,2.72790909 10.4861515,3.48375758 11.3712121,4.65351515 L9.68493939,6.36363636 L14.969697,6.36363636 L14.969697,1.00406061 L13.2977576,2.69966667 C11.9086667,1.04993939 9.82869697,0.00109090909 7.50309091,0.00109090909 C3.73248485,0.00109090909 0.606575758,2.75757576 0.0263333333,6.36363636 L2.80818182,6.36363636 C3.34630303,4.27272727 5.24421212,2.72790909 7.50309091,2.72790909 L7.50309091,2.72790909 Z" id="Shape"></path>
                    <path d="M7.50309091,12.4236061 C5.95645455,12.4236061 4.57912121,11.6992727 3.69154545,10.5713939 L5.47272727,8.78787879 L0.0303030303,8.78787879 L0.0303030303,14.2374545 L1.75648485,12.509 C3.14524242,14.1259091 5.20436364,15.1504242 7.50309091,15.1504242 C11.2737576,15.1504242 14.3995455,12.3939394 14.9799091,8.78787879 L12.1980606,8.78787879 C11.6598182,10.8787879 9.76181818,12.4236061 7.50309091,12.4236061 L7.50309091,12.4236061 Z" id="Shape"></path>
                </g>
            </g>
        </g>
    </g>
</svg>