<?xml version="1.0" encoding="UTF-8" standalone="no"?>
<svg width="36px" height="36px" viewBox="0 0 36 36" version="1.1" xmlns="http://www.w3.org/2000/svg" xmlns:xlink="http://www.w3.org/1999/xlink" xmlns:sketch="http://www.bohemiancoding.com/sketch/ns">
    <!-- Generator: Sketch 3.4.2 (15857) - http://www.bohemiancoding.com/sketch -->
    <title>Oval 78 + noun_154486_cc copy + Shape Copy@2x</title>
    <desc>Created with Sketch.</desc>
    <defs></defs>
    <g id="instructor---light" stroke="none" stroke-width="1" fill="none" fill-rule="evenodd" sketch:type="MSPage">
        <g id="dashboard-2" sketch:type="MSArtboardGroup" transform="translate(-1045.000000, -130.000000)">
            <g id="Oval-78-+-noun_154486_cc-copy-+-Shape-Copy" sketch:type="MSLayerGroup" transform="translate(1045.000000, 130.000000)">
                <g id="Oval-78-+-noun_154486_cc-copy" fill="#CDCACA" sketch:type="MSShapeGroup">
                    <circle id="Oval-78" cx="18" cy="18" r="18"></circle>
                </g>
                <path d="M20.5045058,17.3410367 C19.1600506,18.858913 16.9728026,18.858913 15.6286515,17.3410367 C13.6122728,15.0630201 10.3317049,15.0633636 8.31532614,17.3410367 C7.6643812,18.0764459 6.79908961,18.481419 5.87907121,18.481419 C5.87876717,18.481419 5.87755102,20.4289996 5.87755102,20.4289996 C7.25940284,20.4289996 8.55764427,19.8210247 9.53390966,18.7180827 C10.8780608,17.1998629 13.0653088,17.2002064 14.4097639,18.7184262 C15.4179533,19.857091 16.7420379,20.4265952 18.0664266,20.4265952 C19.3905112,20.4265952 20.7148999,19.8574345 21.7227852,18.7187697 C23.0675444,17.2002064 25.2544884,17.2005499 26.5983355,18.7187697 C27.5749049,19.8220552 28.8734504,20.4296866 30.2546941,20.4296866 L30.2546941,18.482106 C29.3340676,18.481419 28.468776,18.0767894 27.8178311,17.3410367 C25.8011483,15.0637071 22.5202764,15.0630201 20.5045058,17.3410367 Z" id="Shape-Copy" fill="#4A4A4A" sketch:type="MSShapeGroup"></path>
            </g>
        </g>
    </g>
</svg>