<?xml version="1.0" encoding="UTF-8" standalone="no"?>
<svg width="42px" height="42px" viewBox="0 0 42 42" version="1.1" xmlns="http://www.w3.org/2000/svg" xmlns:xlink="http://www.w3.org/1999/xlink" xmlns:sketch="http://www.bohemiancoding.com/sketch/ns">
    <!-- Generator: Sketch 3.4.2 (15857) - http://www.bohemiancoding.com/sketch -->
    <title>Oval 78 + noun_154486_cc copy + Triangle 2 + Triangle 2 + Group Copy 4@1x</title>
    <desc>Created with Sketch.</desc>
    <defs></defs>
    <g id="instructor---light" stroke="none" stroke-width="1" fill="none" fill-rule="evenodd" sketch:type="MSPage">
        <g id="Create_freestyle_4-Copy-7" sketch:type="MSArtboardGroup" transform="translate(-483.000000, -264.000000)">
            <g id="Oval-78-+-noun_154486_cc-copy-+-Triangle-2-+-Triangle-2-+-Group-Copy-4" sketch:type="MSLayerGroup" transform="translate(483.000000, 263.453705)">
                <g id="Oval-78-+-noun_154486_cc-copy-+-Triangle-2-+-Triangle-2" transform="translate(0.613281, 0.945148)" fill="#F42640" sketch:type="MSShapeGroup">
                    <g id="Oval-78-+-noun_154486_cc-copy">
                        <circle id="Oval-78" cx="20.5" cy="20.5" r="20.5"></circle>
                    </g>
                </g>
                <g id="Group-Copy-4" transform="translate(13.000000, 13.000000)" stroke="#FFFFFF" fill="#FFFFFF" sketch:type="MSShapeGroup">
                    <path d="M14.3498084,5.00436985 L14.3498084,7.67826426 C14.3498084,8.13500358 13.9858695,8.50526403 13.5369277,8.50526403 C13.0879861,8.50526403 12.724047,8.13500358 12.724047,7.67826426 L12.724047,5.00436985 L10.2026597,5.00436985 C9.75785603,5.00436985 9.39727161,4.64043093 9.39727161,4.19148915 C9.39727161,3.74254758 9.75785603,3.37860846 10.2026597,3.37860846 L12.724047,3.37860846 L12.724047,0.849536045 C12.724047,0.392796728 13.0879861,0.0225364864 13.5369277,0.0225364864 C13.9858695,0.0225364864 14.3498084,0.392796728 14.3498084,0.849536045 L14.3498084,3.37860846 L17.074611,3.37860846 C17.5194145,3.37860846 17.8799992,3.74254758 17.8799992,4.19148915 C17.8799992,4.64043093 17.5194145,5.00436985 17.074611,5.00436985 L14.3498084,5.00436985 L14.3498084,5.00436985 Z M16.4194746,8.02892028 L16.4194746,15.6861667 C16.4194746,16.0912075 16.0912882,16.4194746 15.6866691,16.4194746 L2.1923142,16.4194746 C1.7869307,16.4194746 1.4595089,16.091928 1.4595089,15.6866691 L1.4595089,2.1923142 C1.4595089,1.7866947 1.78658285,1.4595087 2.19073132,1.4595087 L9.91655177,1.4595087 L9.91655177,0 L2.19073132,0 C0.980823751,0 0,0.98032453 0,2.1923142 L0,15.6866691 C0,16.8974509 0.980324729,17.8789835 2.1923142,17.8789835 L15.6866691,17.8789835 C16.8974509,17.8789835 17.8789835,16.8971738 17.8789835,15.6861667 L17.8789835,8.02892028 L16.4194746,8.02892028 L16.4194746,8.02892028 Z" id="Shape"></path>
                </g>
            </g>
        </g>
    </g>
</svg>