<?xml version="1.0" encoding="utf-8"?>
<!-- Generator: Adobe Illustrator 18.1.0, SVG Export Plug-In . SVG Version: 6.00 Build 0)  -->
<!DOCTYPE svg PUBLIC "-//W3C//DTD SVG 1.1//EN" "http://www.w3.org/Graphics/SVG/1.1/DTD/svg11.dtd">
<svg version="1.1" id="Layer_1" xmlns:sketch="http://www.bohemiancoding.com/sketch/ns"
	 xmlns="http://www.w3.org/2000/svg" xmlns:xlink="http://www.w3.org/1999/xlink" x="0px" y="0px" viewBox="79.6 13 14 14"
	 enable-background="new 79.6 13 14 14" xml:space="preserve">
<g>
	<defs>
		<path id="SVGID_1_" d="M-165.2,2342.6c0.1,0.1,0.1,0.3,0,0.4l-8.3,9.3c-0.1,0.1-0.2,0.1-0.2,0.1c-0.1,0-0.1,0-0.2-0.1l-5.4-4.3
			c-0.1-0.1-0.1-0.3,0-0.4l1.6-1.8c0.1-0.1,0.3-0.1,0.4,0l3.3,2.6l6.5-7.3c0.1-0.1,0.3-0.1,0.4,0L-165.2,2342.6z"/>
	</defs>
	<clipPath id="SVGID_2_">
		<use xlink:href="#SVGID_1_"  overflow="visible"/>
	</clipPath>
	<g clip-path="url(#SVGID_2_)">
		<defs>
			<rect id="SVGID_3_" x="-365.4" y="-3106" width="1028" height="6265"/>
		</defs>
		<clipPath id="SVGID_4_">
			<use xlink:href="#SVGID_3_"  overflow="visible"/>
		</clipPath>
	</g>
</g>
<g>
	<defs>
		<path id="SVGID_5_" d="M-165.2,2341.6c0.1,0.1,0.1,0.3,0,0.4l-8.3,9.3c-0.1,0.1-0.2,0.1-0.2,0.1c-0.1,0-0.1,0-0.2-0.1l-5.4-4.3
			c-0.1-0.1-0.1-0.3,0-0.4l1.6-1.8c0.1-0.1,0.3-0.1,0.4,0l3.3,2.6l6.5-7.3c0.1-0.1,0.3-0.1,0.4,0L-165.2,2341.6z"/>
	</defs>
	<clipPath id="SVGID_6_">
		<use xlink:href="#SVGID_5_"  overflow="visible"/>
	</clipPath>
	<g clip-path="url(#SVGID_6_)">
		<defs>
			<rect id="SVGID_7_" x="-365.4" y="-3107" width="1028" height="6265"/>
		</defs>
		<clipPath id="SVGID_8_">
			<use xlink:href="#SVGID_7_"  overflow="visible"/>
		</clipPath>
	</g>
</g>
<g>
	<defs>
		<path id="SVGID_9_" d="M-165.2,2341.6c0.1,0.1,0.1,0.3,0,0.4l-8.3,9.3c-0.1,0.1-0.2,0.1-0.2,0.1c-0.1,0-0.1,0-0.2-0.1l-5.4-4.3
			c-0.1-0.1-0.1-0.3,0-0.4l1.6-1.8c0.1-0.1,0.3-0.1,0.4,0l3.3,2.6l6.5-7.3c0.1-0.1,0.3-0.1,0.4,0L-165.2,2341.6z"/>
	</defs>
	<clipPath id="SVGID_10_">
		<use xlink:href="#SVGID_9_"  overflow="visible"/>
	</clipPath>
	<g clip-path="url(#SVGID_10_)">
		<defs>
			<rect id="SVGID_11_" x="-365.4" y="-3107" width="1028" height="6265"/>
		</defs>
		<clipPath id="SVGID_12_">
			<use xlink:href="#SVGID_11_"  overflow="visible"/>
		</clipPath>
	</g>
</g>
<g>
	<defs>
		<path id="SVGID_13_" d="M-173.2,2338.6c0.1,0.1,0.1,0.3,0,0.4l-8.3,9.3c-0.1,0.1-0.2,0.1-0.2,0.1c-0.1,0-0.1,0-0.2-0.1l-5.4-4.3
			c-0.1-0.1-0.1-0.3,0-0.4l1.6-1.8c0.1-0.1,0.3-0.1,0.4,0l3.3,2.6l6.5-7.3c0.1-0.1,0.3-0.1,0.4,0L-173.2,2338.6z"/>
	</defs>
	<clipPath id="SVGID_14_">
		<use xlink:href="#SVGID_13_"  overflow="visible"/>
	</clipPath>
	<g clip-path="url(#SVGID_14_)">
		<defs>
			<rect id="SVGID_15_" x="-373.4" y="-3110" width="1028" height="6265"/>
		</defs>
		<clipPath id="SVGID_16_">
			<use xlink:href="#SVGID_15_"  overflow="visible"/>
		</clipPath>
	</g>
</g>
<g>
	<defs>
		<path id="SVGID_17_" d="M-173.2,2338.6c0.1,0.1,0.1,0.3,0,0.4l-8.3,9.3c-0.1,0.1-0.2,0.1-0.2,0.1c-0.1,0-0.1,0-0.2-0.1l-5.4-4.3
			c-0.1-0.1-0.1-0.3,0-0.4l1.6-1.8c0.1-0.1,0.3-0.1,0.4,0l3.3,2.6l6.5-7.3c0.1-0.1,0.3-0.1,0.4,0L-173.2,2338.6z"/>
	</defs>
	<clipPath id="SVGID_18_">
		<use xlink:href="#SVGID_17_"  overflow="visible"/>
	</clipPath>
	<g clip-path="url(#SVGID_18_)">
		<defs>
			<rect id="SVGID_19_" x="-373.4" y="-3110" width="1028" height="6265"/>
		</defs>
		<clipPath id="SVGID_20_">
			<use xlink:href="#SVGID_19_"  overflow="visible"/>
		</clipPath>
	</g>
</g>
<g>
	<defs>
		<path id="SVGID_21_" d="M-173.2,2338.6c0.1,0.1,0.1,0.3,0,0.4l-8.3,9.3c-0.1,0.1-0.2,0.1-0.2,0.1c-0.1,0-0.1,0-0.2-0.1l-5.4-4.3
			c-0.1-0.1-0.1-0.3,0-0.4l1.6-1.8c0.1-0.1,0.3-0.1,0.4,0l3.3,2.6l6.5-7.3c0.1-0.1,0.3-0.1,0.4,0L-173.2,2338.6z"/>
	</defs>
	<clipPath id="SVGID_22_">
		<use xlink:href="#SVGID_21_"  overflow="visible"/>
	</clipPath>
	<g clip-path="url(#SVGID_22_)">
		<defs>
			<rect id="SVGID_23_" x="-373.4" y="-3110" width="1028" height="6265"/>
		</defs>
		<clipPath id="SVGID_24_">
			<use xlink:href="#SVGID_23_"  overflow="visible"/>
		</clipPath>
	</g>
</g>
<g>
	<defs>
		<path id="SVGID_25_" d="M-173.2,2338.6c0.1,0.1,0.1,0.3,0,0.4l-8.3,9.3c-0.1,0.1-0.2,0.1-0.2,0.1c-0.1,0-0.1,0-0.2-0.1l-5.4-4.3
			c-0.1-0.1-0.1-0.3,0-0.4l1.6-1.8c0.1-0.1,0.3-0.1,0.4,0l3.3,2.6l6.5-7.3c0.1-0.1,0.3-0.1,0.4,0L-173.2,2338.6z"/>
	</defs>
	<clipPath id="SVGID_26_">
		<use xlink:href="#SVGID_25_"  overflow="visible"/>
	</clipPath>
	<g clip-path="url(#SVGID_26_)">
		<defs>
			<rect id="SVGID_27_" x="-373.4" y="-3110" width="1028" height="6265"/>
		</defs>
		<clipPath id="SVGID_28_">
			<use xlink:href="#SVGID_27_"  overflow="visible"/>
		</clipPath>
	</g>
</g>
<g>
	<defs>
		<path id="SVGID_29_" d="M-173.2,2338.6c0.1,0.1,0.1,0.3,0,0.4l-8.3,9.3c-0.1,0.1-0.2,0.1-0.2,0.1c-0.1,0-0.1,0-0.2-0.1l-5.4-4.3
			c-0.1-0.1-0.1-0.3,0-0.4l1.6-1.8c0.1-0.1,0.3-0.1,0.4,0l3.3,2.6l6.5-7.3c0.1-0.1,0.3-0.1,0.4,0L-173.2,2338.6z"/>
	</defs>
	<clipPath id="SVGID_30_">
		<use xlink:href="#SVGID_29_"  overflow="visible"/>
	</clipPath>
	<g clip-path="url(#SVGID_30_)">
		<defs>
			<rect id="SVGID_31_" x="-373.4" y="-3110" width="1028" height="6265"/>
		</defs>
		<clipPath id="SVGID_32_">
			<use xlink:href="#SVGID_31_"  overflow="visible"/>
		</clipPath>
	</g>
</g>
<g>
	<defs>
		<path id="SVGID_33_" d="M-171.2,2339.6c0.1,0.1,0.1,0.3,0,0.4l-8.3,9.3c-0.1,0.1-0.2,0.1-0.2,0.1c-0.1,0-0.1,0-0.2-0.1l-5.4-4.3
			c-0.1-0.1-0.1-0.3,0-0.4l1.6-1.8c0.1-0.1,0.3-0.1,0.4,0l3.3,2.6l6.5-7.3c0.1-0.1,0.3-0.1,0.4,0L-171.2,2339.6z"/>
	</defs>
	<clipPath id="SVGID_34_">
		<use xlink:href="#SVGID_33_"  overflow="visible"/>
	</clipPath>
	<g clip-path="url(#SVGID_34_)">
		<defs>
			<rect id="SVGID_35_" x="-372.4" y="-3108.6" width="1028" height="6265"/>
		</defs>
		<clipPath id="SVGID_36_">
			<use xlink:href="#SVGID_35_"  overflow="visible"/>
		</clipPath>
	</g>
</g>
<g>
	<defs>
		<path id="SVGID_37_" d="M93.5,17.2c0.1,0.1,0.1,0.3,0,0.4l-8.1,9.3c-0.1,0.1-0.2,0.1-0.2,0.1c-0.1,0-0.1,0-0.2-0.1l-5.3-4.3
			c-0.1-0.1-0.1-0.3,0-0.4l1.6-1.8c0.1-0.1,0.3-0.1,0.4,0l3.2,2.6l6.3-7.3c0.1-0.1,0.3-0.1,0.4,0L93.5,17.2z"/>
	</defs>
	<clipPath id="SVGID_38_">
		<use xlink:href="#SVGID_37_"  overflow="visible"/>
	</clipPath>
	<g clip-path="url(#SVGID_38_)">
		<defs>
			<rect id="SVGID_39_" x="-102.8" y="-5416.1" width="1003" height="6247.8"/>
		</defs>
		<clipPath id="SVGID_40_">
			<use xlink:href="#SVGID_39_"  overflow="visible"/>
		</clipPath>
		<rect x="74.8" y="10.6" clip-path="url(#SVGID_40_)" fill="#6DAA24" width="23.7" height="21.3"/>
	</g>
</g>
</svg>
