<?xml version="1.0" encoding="UTF-8" standalone="no"?>
<svg width="40px" height="40px" viewBox="0 0 40 40" version="1.1" xmlns="http://www.w3.org/2000/svg" xmlns:xlink="http://www.w3.org/1999/xlink">
    <!-- Generator: Sketch 3.6.1 (26313) - http://www.bohemiancoding.com/sketch -->
    <title>ico40grn_syncsuccess</title>
    <desc>Created with Sketch.</desc>
    <defs></defs>
    <g id="Page-1" stroke="none" stroke-width="1" fill="none" fill-rule="evenodd">
        <g id="Style-guide-VA-manager" transform="translate(-445.000000, -5460.000000)">
            <g id="Icons" transform="translate(-20.000000, 5160.000000)">
                <g id="STATUS" transform="translate(201.000000, 208.000000)">
                    <g id="ico40grn_syncsuccess" transform="translate(264.000000, 92.000000)">
                        <rect id="Rectangle-75" x="12" y="19" width="16" height="16" rx="100"></rect>
                        <circle id="Oval-15" fill="#E9E9E9" cx="20" cy="20" r="20"></circle>
                        <path d="M32.1393096,12.7084323 C32.3349692,12.8651496 32.3712015,13.1567664 32.2021176,13.3478204 L18.1478914,29.2073354 C18.0368009,29.333142 17.8833578,29.3857675 17.7335869,29.3674529 C17.6285623,29.3628678 17.5246802,29.3262644 17.4377446,29.2576426 L8.17980423,21.9008925 C7.97323684,21.7384824 7.93814704,21.4433624 8.10848218,21.2512265 L10.8429568,18.1653068 C11.0084501,17.9789152 11.322463,17.9525896 11.5326482,18.119559 L17.1731838,22.6009687 L28.1921424,10.1635273 C28.3733037,9.96113944 28.6655827,9.94970248 28.8684779,10.1120868 L32.1393096,12.7084323 Z" id="ico16grey_syncsuccess" fill="#6DAA24"></path>
                    </g>
                </g>
            </g>
        </g>
    </g>
</svg>