<?xml version="1.0" encoding="UTF-8" standalone="no"?>
<svg width="14px" height="21px" viewBox="0 0 14 21" version="1.1" xmlns="http://www.w3.org/2000/svg" xmlns:xlink="http://www.w3.org/1999/xlink" xmlns:sketch="http://www.bohemiancoding.com/sketch/ns">
    <!-- Generator: Sketch 3.4.2 (15857) - http://www.bohemiancoding.com/sketch -->
    <title>Shape@1x</title>
    <desc>Created with Sketch.</desc>
    <defs></defs>
    <g id="instructor---light" stroke="none" stroke-width="1" fill="none" fill-rule="evenodd" sketch:type="MSPage">
        <g id="dashboard-undo" sketch:type="MSArtboardGroup" transform="translate(-178.000000, -409.000000)" fill="#E01831">
            <path d="M184.890102,409 C181.084892,409 178,412.084892 178,415.889898 C178,415.97147 178.002441,416.054466 178.006103,416.138276 C178.031937,416.862051 178.168433,417.557144 178.400538,418.207483 C179.870464,423.039159 184.890102,429.342185 184.890102,429.342185 C184.890102,429.342185 189.909129,423.039769 191.379259,418.208094 C191.61177,417.557754 191.748063,416.862051 191.773694,416.138276 C191.777762,416.054466 191.78,415.971674 191.78,415.889898 C191.780203,412.084892 188.695311,409 184.890102,409 L184.890102,409 Z M184.890102,419.264463 C183.026554,419.264463 181.515536,417.753446 181.515536,415.889898 C181.515536,414.026554 183.026554,412.515536 184.890102,412.515536 C186.753853,412.515536 188.264667,414.026554 188.264667,415.889898 C188.264667,417.753446 186.753853,419.264463 184.890102,419.264463 L184.890102,419.264463 Z" id="Shape" sketch:type="MSShapeGroup"></path>
        </g>
    </g>
</svg>