<?xml version="1.0" encoding="UTF-8" standalone="no"?>
<svg width="15px" height="22px" viewBox="0 0 15 22" version="1.1" xmlns="http://www.w3.org/2000/svg" xmlns:xlink="http://www.w3.org/1999/xlink">
    <!-- Generator: Sketch 41 (35326) - http://www.bohemiancoding.com/sketch -->
    <title>noun_424_cc</title>
    <desc>Created with Sketch.</desc>
    <defs></defs>
    <g id="Page-1" stroke="none" stroke-width="1" fill="none" fill-rule="evenodd">
        <g id="Simfy-edcon-card-payment-v.3" transform="translate(-424.000000, -152.000000)" fill="#FFFFFF">
            <g id="noun_424_cc" transform="translate(424.000000, 152.000000)">
                <g id="Group">
                    <path d="M13.3455882,9.09436 L13.3455882,5.83 C13.3455882,2.61536 10.7230147,0 7.5,0 C4.27698529,0 1.65441176,2.61536 1.65441176,5.83 L1.65441176,9.09436 L0,9.24 L0,21.34 L7.5,22 L15,21.34 L15,9.24 L13.3455882,9.09436 Z M8.38235294,17.05 L7.5,17.05 L6.61764706,17.05 L7.12301471,15.20288 C6.825,15.06142 6.61764706,14.76112 6.61764706,14.41 C6.61764706,13.9238 7.01272059,13.53 7.5,13.53 C7.9875,13.53 8.38235294,13.9238 8.38235294,14.41 C8.38235294,14.76112 8.17522059,15.06142 7.87742647,15.20266 L8.38235294,17.05 Z M11.5808824,8.93926 L7.5,8.58 L3.41911765,8.93926 L3.41911765,5.83 C3.41911765,3.58578 5.24977941,1.76 7.5,1.76 C9.75022059,1.76 11.5808824,3.58578 11.5808824,5.83 L11.5808824,8.93926 Z" id="Shape"></path>
                </g>
            </g>
        </g>
    </g>
</svg>