<?xml version="1.0" encoding="UTF-8" standalone="no"?>
<svg width="91px" height="91px" viewBox="0 0 91 91" version="1.1" xmlns="http://www.w3.org/2000/svg" xmlns:xlink="http://www.w3.org/1999/xlink" xmlns:sketch="http://www.bohemiancoding.com/sketch/ns">
    <!-- Generator: Sketch 3.4.2 (15857) - http://www.bohemiancoding.com/sketch -->
    <title>Rectangle-path + Group@2x</title>
    <desc>Created with Sketch.</desc>
    <defs></defs>
    <g id="instructor---light" stroke="none" stroke-width="1" fill="none" fill-rule="evenodd" sketch:type="MSPage">
        <g id="virgin_logo2" sketch:type="MSLayerGroup" transform="translate(-672.500000, -861.710000)">
            <g id="Layer_1" sketch:type="MSShapeGroup">
                <g id="Rectangle-path-+-Group" transform="translate(673.000000, 862.000000)">
                    <rect id="Rectangle-path" fill="#F42640" x="0" y="0" width="90" height="90"></rect>
                    <g id="Group" transform="translate(9.000000, 18.000000)" fill="#FFFFFF">
                        <path d="M25.9,34.9 C24.9,32.8 23.9,30.6 22.9,28.5 C22.8,28.3 22.9,28.3 22.7,28.3 C21.1,28.5 19.4,28.8 17.7,29 C15,33.7 12.2,38.4 9.5,43.1 C9,43.9 8.6,44.7 8.1,45.5 C7.7,46.2 7.2,47 6.8,47.7 C6.8,47.7 6.7,47.8 6.8,47.8 C8.9,47.2 11,46.6 13,46 C13.7,44.6 14.4,43.2 15.1,41.8 C17.8,41.1 20.5,40.4 23.2,39.8 C23.6,40.8 24,41.8 24.3,42.8 C25.8,42.4 27.3,41.9 28.8,41.5 C27.9,39.3 26.9,37.1 25.9,34.9 M37.1,26.2 C33.5,26.4 31,27.5 29.6,29.8 C28.9,30.9 28.5,32.6 28.5,34.2 C28.5,36 28.9,37.5 29.7,38.6 C30.6,39.7 31.8,40.2 33.6,40.2 C34.5,40.2 35.3,40.1 36,39.9 C38.2,39.3 40.1,38.4 41.3,36.9 C42.1,35.9 42.7,34.6 42.7,32.7 C41.6,32.9 40.6,33.2 39.6,33.4 C39.5,35 38.8,36 37.7,36.6 C37.2,36.9 36.5,37.2 35.8,37.2 C35,37.3 34.3,37.1 33.8,36.7 C32.9,36 32.5,34.8 32.5,33.4 C32.4,32 32.9,30.7 33.6,29.9 C34.3,29.1 35.4,28.5 36.9,28.5 C38.3,28.5 39.2,29.3 39.5,30.5 C40.5,30.3 41.5,30.1 42.5,29.9 C41.8,27.4 40.1,26 37.1,26.2 M50.9,24.6 C50.8,24.5 50.9,24.5 50.9,24.6 C50.8,24.5 50.7,24.5 50.7,24.5 C48,24.9 44.9,25.3 42.1,25.7 C42.2,26.4 42.3,27 42.3,27.7 C43.5,27.5 44.6,27.3 45.8,27.1 C46.3,30.1 46.7,33.1 47.2,36.1 C48.1,35.9 48.8,35.6 49.7,35.4 C49.2,32.5 48.7,29.6 48.2,26.7 C49.2,26.5 50.2,26.4 51.2,26.2 C51.1,25.8 51,25.1 50.9,24.6 M51.5,24.4 C52.2,27.7 52.9,31.1 53.6,34.4 C54.2,34.2 54.9,34 55.4,33.9 C55.5,33.9 55.6,33.9 55.7,33.8 C55,30.6 54.2,27.4 53.5,24.2 C52.9,24.2 52.2,24.3 51.5,24.4 M59.7,23.3 C59.7,25.6 59.7,27.9 59.8,30.2 C59.2,29.2 58.6,28.1 57.9,27 C57.3,26 56.7,25 56.2,24 C56.2,23.9 56.2,23.8 56.1,23.8 C55.4,23.9 54.8,24 54.1,24.1 C54.5,24.8 55,25.5 55.4,26.3 C56.7,28.4 58,30.5 59.3,32.5 C59.4,32.6 59.4,32.7 59.5,32.8 C60.1,32.6 60.7,32.4 61.4,32.3 C61.4,30 61.5,27.7 61.5,25.4 L61.5,23.4 C61.5,23.3 61.5,23.2 61.4,23.2 C60.8,23.1 60.2,23.2 59.7,23.3 M66.6,22.4 C66.6,22.3 66.6,22.3 66.5,22.3 L66.4,22.3 C65,22.5 63.2,22.8 61.8,22.9 C62.6,25.7 63.5,28.4 64.4,31.2 C66,30.7 67.6,30.3 69.3,29.8 C69.2,29.3 69,28.9 68.8,28.5 C68.8,28.4 68.8,28.4 68.7,28.3 C67.6,28.6 66.5,28.9 65.3,29.2 C65.1,28.6 64.9,28 64.7,27.4 C65.5,27.2 66.4,27 67.2,26.8 C67,26.3 66.9,25.9 66.7,25.4 C65.8,25.5 65,25.7 64.2,25.9 C64,25.3 63.8,24.8 63.6,24.2 C64.7,24 65.8,23.8 66.9,23.7 C66.9,23.3 66.7,22.8 66.6,22.4 M25.2,2.5 C22.7,3.1 20.9,4.3 19.7,6.1 C18.9,7.3 18.4,8.9 18.5,10.9 C18.5,11.8 18.8,12.7 19,13.4 C19.2,14.2 19.6,14.9 19.9,15.5 C21.3,18.1 23.5,20.1 26.1,21.6 C27.4,22.4 28.8,23 30.3,23.5 C31.9,24 33.6,24.3 35.7,24.3 C39.6,24.2 42.4,22.7 44,20.3 C44.8,19.1 45.4,17.5 45.2,15.5 C45.1,13.6 44.5,12.1 43.8,10.8 C43.2,9.8 42.6,8.9 41.9,8.2 C39.7,5.8 37,4 33.5,2.9 C32,2.4 30.1,2.1 28.1,2.1 C26.9,2.2 26,2.3 25.2,2.5 M51.7,35.2 C51.8,36.3 51.4,37.2 50.7,37.6 C50.4,37.7 50.1,37.8 49.7,37.9 C48.9,38.2 48.1,38.4 47.2,38.7 C47,38.8 46.9,38.8 46.7,38.8 C46.1,38.8 45.7,38.5 45.5,38.1 C45.3,37.7 45.2,37.1 45.2,36.5 C45,35.4 44.9,34.3 44.8,33.2 C44.7,36.9 43,39.2 40.6,40.7 C39.4,41.5 38.1,42.1 36.5,42.5 C35,42.9 33.1,43.2 31.3,42.8 C31.2,42.9 31.1,43.1 31,43.2 C30.7,43.6 30.3,43.9 29.8,44.2 C29.5,44.3 29.1,44.4 28.7,44.6 C27.2,45.1 25.8,45.5 24.3,46 C23.9,46.1 23.5,46.3 23.2,46.3 C22.6,46.4 22.1,46.1 21.9,45.7 C21.8,45.5 21.8,45.3 21.7,45.1 C21.5,44.6 21.3,44 21.1,43.4 C20,43.7 18.9,44 17.7,44.4 C17.4,45.1 17.1,45.8 16.8,46.5 C16.5,47.2 16.2,47.9 15.7,48.4 C15.4,48.6 15.1,48.9 14.8,49 C14.5,49.2 14.1,49.3 13.7,49.4 C10.7,50.4 7.6,51.4 4.5,52.4 C3.8,52.6 2.9,53 2.1,53 C1.8,53 1.3,52.9 1.1,52.8 C0.8,52.6 0.5,52.2 0.5,51.7 C0.5,51.5 0.6,51.2 0.6,51 C0.8,50.4 1.2,49.8 1.5,49.3 C2.8,47.2 4.2,44.9 5.6,42.8 C8.3,38.5 11,34.2 13.7,29.8 C13.9,29.4 14.2,29.1 14.4,28.7 C14.6,28.3 14.8,28 15.1,27.6 C15.6,26.9 16.3,26.5 17.3,26.3 C17.8,26.2 18.4,26.2 18.9,26.1 C19.9,26 21,25.9 22,25.7 C22.5,25.6 23.1,25.5 23.6,25.6 C24.1,25.6 24.6,25.8 24.9,26.1 C25.2,26.4 25.4,26.7 25.6,27.1 C26,27.9 26.3,28.7 26.7,29.5 C27.5,27.8 28.6,26.5 30.1,25.6 C25.5,24.3 21.8,21.9 19,18.6 C18.1,17.5 17.3,16.2 16.7,14.9 C16.4,14.2 16.2,13.4 16,12.6 C15.8,11.8 15.7,10.9 15.7,9.9 C15.8,8 16.3,6.6 17.1,5.3 C18.6,2.9 21.3,1.3 24.6,0.7 C28.4,0.1 32.2,0.9 34.9,2 C37.8,3.1 40.2,4.8 42.2,6.8 C43.2,7.8 44.1,8.9 44.9,10.2 C45.7,11.5 46.3,12.9 46.7,14.5 C47.1,16.3 47,18.2 46.4,19.8 C45.9,21.3 45,22.4 44,23.4 C47.6,23 51.5,22.5 55.2,22.1 C55.5,22.1 55.9,22 56.1,22.1 C56.7,22.3 57,22.9 57.3,23.5 C57.6,24.1 57.9,24.6 58.3,25.1 L58.3,23.4 C58.3,22.8 58.2,22 58.5,21.7 C58.7,21.6 59.1,21.6 59.5,21.5 C61.7,21.2 63.8,21 66,20.8 L66.5,20.8 C66.9,20.9 67.1,21.3 67.2,21.6 C67.4,22 67.5,22.4 67.6,22.7 C67.9,23.5 68.1,24 68.4,24.9 C68.1,24.9 67.9,25 67.6,25 C67.8,25.6 68,26.2 68.2,26.7 C68.5,26.6 68.7,26.6 69,26.5 C69.1,26.6 69.1,26.7 69.1,26.7 C69.4,27.6 69.8,28.6 70.2,29.5 C70.4,29.9 70.6,30.7 70.3,31.1 C70.2,31.2 69.8,31.3 69.6,31.4 C68.1,31.9 66.6,32.3 65.1,32.9 C64.9,33 64.5,33.1 64.3,33.1 C64,33.1 63.8,32.8 63.6,32.6 C63.4,32.3 63.3,32 63.2,31.7 C63,31 62.8,30.4 62.6,29.8 L62.6,32.4 L62.6,33.3 C62.6,33.5 62.4,33.7 62.2,33.8 C62.1,33.9 62,33.9 61.8,33.9 C61.2,34.1 60.7,34.3 60.1,34.5 C59.9,34.6 59.6,34.7 59.3,34.7 C58.9,34.7 58.5,34.3 58.3,34 C57.6,32.9 57,31.9 56.4,30.8 L56.4,30.8 L56.4,30.8 C56.6,31.5 56.8,32.2 56.9,32.9 C57,33.2 57.1,33.6 57.2,34 C57.3,34.7 57.1,35.5 56.6,35.7 C56.4,35.8 56.1,35.9 55.8,35.9 C55.3,36.1 54.8,36.2 54.2,36.4 C53.9,36.5 53.7,36.6 53.4,36.6 C52.9,36.7 52.5,36.4 52.2,36.2 C52,36 51.9,35.6 51.7,35.2" id="Shape"></path>
                        <path d="M68.7,24.9 C69.7,25.1 70.4,25.8 70.9,26.5 C71.3,27 71.6,27.6 71.8,28.3 C71.9,28.5 71.9,28.8 71.9,29.1 C71.9,29.6 71.7,30.1 71.3,30.3 C71.2,30.4 71,30.4 70.8,30.5 C70.3,29.1 69.8,27.7 69.2,26.3 C68.9,26.4 68.6,26.4 68.3,26.5 C68.2,26.1 68,25.8 67.9,25.4 C68.2,25.4 68.4,25.3 68.7,25.3 C68.8,25.1 68.7,25 68.7,24.9" id="Shape"></path>
                        <path d="M58.8,21.4 C57.6,21.4 58.1,23.1 58,24.1 C58,24.2 57.9,24 57.9,24 C57.5,23.4 57.2,22.5 56.6,22.1 C56.4,21.9 56.1,21.8 55.8,21.8 C55.5,21.8 55.1,21.9 54.7,21.9 C52.2,22.2 49.6,22.5 47.1,22.7 C47.7,20.9 48.4,19.1 49,17.3 C49.1,17 49.2,16.8 49.3,16.5 C49.6,15.9 50.2,15.6 51.1,15.6 C52,15.7 52.8,16.2 53.4,16.7 C54.9,18 56.5,19.3 58,20.6 C58.2,20.9 58.5,21.1 58.8,21.4" id="Shape"></path>
                        <path d="M28,15.3 C27.9,15.3 27.9,15.5 27.9,15.6 C27.9,16.1 28,16.8 28.1,17.4 C28.1,17.8 28.2,18.2 28.2,18.5 C28.2,18.8 28,19 27.7,19 C27.4,19 27.3,18.7 27.2,18.5 C27.1,18.3 27,18.2 26.9,18 C26.8,17.8 26.7,17.5 26.6,17.3 C26.6,17.1 26.5,17 26.4,16.8 L26.3,16.8 C26.2,16.8 26.3,16.8 26.3,16.7 C26.3,16.6 26.2,16.6 26.2,16.6 L26.2,16.5 C25.9,15.8 25.6,15.1 25.3,14.4 C25.2,14.2 25.1,13.9 25,13.7 C24.9,13.3 24.7,13.1 24.6,12.7 C24.6,12.6 24.5,12.6 24.5,12.6 C24.5,12.5 24.4,12.4 24.5,12.3 C24.5,12.3 24.5,12.3 24.4,12.3 C24.4,12.2 24.3,12.2 24.2,12.1 C24.1,12.1 24.2,12.2 24.1,12.3 C24,12.3 24,12.4 24.1,12.3 C24.1,12.3 24.1,12.3 24,12.3 L24,12.4 C23.9,12.5 23.9,12.6 23.9,12.8 L23.9,12.8 L23.9,13 L23.9,13.1 C23.8,13.2 23.8,13.3 23.7,13.4 C23.8,13.5 23.6,13.6 23.7,13.7 C23.4,14 22.7,13.9 22.7,13.5 C22.7,13.4 22.7,13.2 22.8,13.1 C22.9,12.8 23,12.5 23,12.3 C23,12.2 23.1,12.2 23.1,12.2 L23.1,12.1 C23.2,11.8 23.2,11.4 23.4,11 C23.4,10.9 23.4,10.8 23.5,10.7 C23.6,10.5 23.6,10.1 23.6,9.9 C23.7,9.5 24.4,9.6 24.6,9.8 C24.8,10 24.9,10.4 25.1,10.8 C25.2,10.9 25.2,11.1 25.2,11.2 L25.3,11.3 C25.3,11.3 25.3,11.4 25.4,11.4 C25.3,11.4 25.5,11.5 25.4,11.5 L25.5,11.6 L25.5,11.7 C25.6,11.9 25.7,12.2 25.8,12.4 L25.9,12.4 C25.9,12.5 26,12.6 26,12.7 C26,12.8 26,12.9 26.1,12.9 C26.1,13 26.1,13.1 26.2,13.2 C26.2,13.4 26.3,13.5 26.4,13.6 L26.4,13.9 C26.4,14 26.5,13.9 26.5,14 L26.6,14.1 C26.6,14.3 26.7,14.4 26.7,14.6 C26.7,14.6 26.8,14.6 26.8,14.7 C26.8,14.8 26.8,14.9 26.9,14.9 C27,14.7 26.9,14.5 26.9,14.3 C26.9,13.6 26.8,12.6 26.8,11.9 C26.8,11.5 26.9,11.1 26.9,10.7 C26.9,10.5 27,10.3 27,10.1 C27,9.8 27,9.4 27.1,9.1 L27.1,9 C27.2,8.9 27.1,8.7 27.2,8.6 C27.2,8.5 27.3,8.4 27.3,8.3 L27.3,8.2 C27.3,8.2 27.3,8.1 27.4,8.1 C27.4,7.9 27.5,7.7 27.5,7.5 C27.6,7 27.8,6.3 27.9,5.8 C28,5.4 28.2,5 28.7,5 C28.9,5 29.2,5.1 29.4,5.3 C29.5,5.4 29.7,5.6 29.7,5.9 C29.7,6 29.6,6.1 29.6,6.2 C29.5,6.2 29.5,6.3 29.4,6.3 C29,6.7 28.9,7.3 28.7,7.8 C28.8,8 28.5,8.2 28.6,8.4 C28.6,8.5 28.5,8.5 28.5,8.6 C28.4,8.9 28.5,9.2 28.4,9.4 C28.4,9.5 28.5,9.5 28.5,9.5 C28.4,9.6 28.5,9.9 28.4,10 C28.4,10.2 28.4,10.3 28.5,10.5 C28.5,10.6 28.4,10.6 28.4,10.6 C28.4,10.9 28.3,11.1 28.3,11.5 L28.3,12.3 L28.3,12.6 C28.3,12.7 28.2,12.6 28.2,12.7 C28.2,12.8 28.3,12.8 28.3,12.9 L28.3,13.1 C28.3,13.3 28.3,13.4 28.4,13.6 C28.4,13.7 28.4,13.6 28.3,13.7 C28.4,13.9 28.3,14 28.3,14.3 C28.3,14.4 28.4,14.3 28.4,14.4 C28.4,14.6 28.4,14.7 28.3,14.8 C27.9,15 27.8,15.3 28,15.3" id="Shape"></path>
                        <path d="M36.3,8.4 C36.3,8.7 35.9,9 35.6,8.8 C35.6,8.8 35.5,8.7 35.5,8.6 C35.4,8.2 36.1,8.1 36.3,8.4" id="Shape"></path>
                        <path d="M36.7,11.3 C36.7,11.4 36.7,11.3 36.7,11.3 C36.7,11.5 36.7,11.6 36.8,11.7 C36.9,11.8 36.9,12 36.8,12.2 C36.8,12.2 36.5,12.4 36.4,12.4 C36.3,12.4 36.1,12.3 36.1,12.3 C36,12.1 36,11.6 35.9,11.2 C35.8,10.7 35.7,10.3 35.7,10 C35.7,9.7 36,9.5 36.3,9.7 C36.4,9.8 36.4,9.9 36.5,10.1 L36.5,10.3 L36.5,10.5 C36.5,10.6 36.6,10.7 36.6,10.9 C36.6,11 36.7,11.1 36.7,11.3 C36.7,11.2 36.8,11.2 36.7,11.3 L36.7,11.3" id="Shape"></path>
                        <path d="M29.3,10.3 L29.5,10.3 C29.6,10.3 29.7,10.6 29.7,10.6 C29.7,10.7 29.7,10.7 29.6,10.7 C29.5,10.8 29.5,10.9 29.3,11 C29.2,11.1 29.1,11.2 28.9,11.1 C28.7,11 28.6,10.7 28.8,10.5 C28.9,10.4 29.1,10.3 29.3,10.3" id="Shape"></path>
                        <path d="M32,11.3 C32.1,11.4 32.3,11.5 32.3,11.7 C32.3,12 31.8,12.1 31.7,12.4 C31.6,12.6 31.7,12.7 31.7,12.9 C31.7,13 31.8,13.2 31.8,13.4 C31.9,13.6 31.9,13.8 31.9,14.1 C31.9,14.4 31.8,14.6 31.6,14.7 C31.5,14.7 31.4,14.8 31.2,14.8 C30.9,14.7 30.9,14.3 30.8,14 C30.8,13.8 30.7,13.6 30.6,13.3 C30.7,12.7 30.2,12.2 30.5,11.8 C30.6,11.6 30.9,11.6 31.2,11.5 C31.5,11.4 31.6,11.2 32,11.3" id="Shape"></path>
                        <path d="M29.8,12.5 C29.8,12.5 29.7,12.5 29.8,12.5 C29.8,12.6 29.9,12.7 29.9,12.8 L29.9,13.3 C29.9,13.4 30,13.5 30,13.6 L30,13.8 C30,14.2 30.1,14.5 30.2,14.8 L30.2,15.2 C30.2,15.3 30.3,15.2 30.3,15.3 C30.3,15.4 30.3,15.4 30.2,15.3 C30.2,15.3 30.2,15.4 30.1,15.4 C30,15.5 29.8,15.6 29.7,15.7 L29.4,15.7 C29.2,15.5 29.2,15.2 29.1,14.8 C29.1,14.6 29,14.4 29,14.2 L29,14 C29,13.8 28.9,13.6 28.9,13.3 C28.8,12.9 28.8,12.5 29,12.3 C29.1,12.2 29.5,12 29.7,12.2 C29.7,12.2 29.7,12.4 29.8,12.5" id="Shape"></path>
                        <path d="M36,14.4 L36,14.6 C36,14.6 36,14.7 36.1,14.7 C36.1,14.8 36.1,14.9 36.2,15 L36.2,15.1 C36.2,15.1 36.2,15.1 36.2,15.2 C36.2,15.2 36.2,15.3 36.2,15.2 L36.3,15.3 L36.3,15.4 C36.3,15.6 36.4,15.8 36.4,15.9 C36.5,16 36.5,16.2 36.5,16.4 L36.5,16.5 L36.6,16.6 C36.6,16.7 36.6,16.8 36.7,16.9 C36.7,16.9 36.6,16.9 36.6,17 C36.6,17.1 36.7,17.1 36.7,17.1 L36.6,17.1 C36.7,17.2 36.7,17.2 36.7,17.4 C36.7,17.5 36.8,17.5 36.8,17.6 C36.8,17.6 36.8,17.6 36.8,17.7 C36.9,17.8 36.9,17.8 36.9,17.9 C37,17.9 36.9,17.9 37,18 C36.9,18.1 37,18.1 37,18.2 C37,18.2 37,18.3 37.1,18.3 L37.1,18.4 L37.2,18.4 C37.2,18.5 37.3,18.5 37.3,18.6 C37.2,18.6 37.3,18.6 37.3,18.7 C37.3,18.8 37.4,18.8 37.4,18.8 C37.4,18.9 37.5,19 37.5,19 C37.4,19.1 37.5,19.1 37.4,19.1 C37.4,19.2 37.4,19.2 37.5,19.2 C37.6,19.1 37.6,19.3 37.7,19.3 C37.6,19.3 37.7,19.4 37.7,19.4 C37.8,19.4 37.8,19.5 37.9,19.5 C37.9,19.6 37.8,19.7 37.9,19.7 C37.8,19.9 37.8,20.1 37.6,20.1 C37.3,20.1 37.1,20.1 36.9,20 C36.4,19.3 36.3,18.4 36.1,17.5 C36,17.3 36,17.1 36,16.9 C36,16.7 35.9,16.6 35.8,16.4 C35.7,15.9 35.5,15.4 35.4,14.9 C35.1,15 34.9,15.3 34.6,15.5 C34.1,15.9 33.6,16.4 33.1,16.8 C32.9,17 32.6,17.2 32.4,17.5 L31.8,18.1 C31.8,18.2 31.7,18.2 31.8,18.2 C31.6,18.4 31.4,18.7 31.2,18.9 C31.1,19.1 30.9,19.3 30.8,19.5 C30.7,19.6 30.7,19.7 30.6,19.7 L30.6,19.8 C30.3,20 29.8,19.8 29.6,19.6 C29.4,19.3 29.6,19.1 29.8,18.8 C29.9,18.7 30,18.5 30.1,18.4 C30.8,17.7 31.5,17 32.2,16.3 C32.7,15.9 33.2,15.4 33.7,15 C34.2,14.6 34.7,14.2 35.2,13.8 C35.2,13.6 35.1,13.5 35.1,13.3 C34.9,13.4 34.8,13.5 34.6,13.6 C34.1,13.7 33.8,13.7 33.5,13.4 C33.3,13.2 33.3,12.9 33.1,12.5 C33.1,12.4 33,12.3 33,12.2 L33,12.1 C33,12 32.9,11.9 32.9,11.7 C32.8,11.3 32.9,10.7 33.2,10.4 C33.3,10.3 33.8,10 34,10.2 C34.1,10.3 34.1,10.6 34,10.7 C34,10.7 33.9,10.7 33.9,10.8 L33.9,10.9 C33.9,11 33.9,10.9 33.8,11 C33.7,11.2 33.7,11.4 33.7,11.7 C33.7,11.8 33.8,11.8 33.8,11.8 C33.8,12 33.8,12.3 33.9,12.6 C33.9,12.7 34.1,12.8 34.2,12.9 C34.4,12.9 34.7,12.8 34.7,12.6 L34.7,12.2 C34.7,12 34.6,11.8 34.6,11.5 C34.5,11.3 34.5,11 34.5,10.7 C34.4,10.5 34.4,10.2 34.4,10.1 C34.5,9.8 35.1,9.8 35.2,10.1 L35.2,10.2 C35.2,10.3 35.2,10.4 35.3,10.5 C35.3,10.6 35.4,10.6 35.4,10.8 C35.4,10.8 35.4,10.8 35.4,10.9 C35.5,11.2 35.6,11.7 35.6,12 C35.6,12.1 35.7,12.3 35.7,12.4 L35.8,12.5 C35.8,12.6 35.8,12.8 35.9,12.9 C35.9,13 36,13.1 36,13.2 C36.5,12.9 36.9,12.6 37.4,12.3 C37.5,12.3 37.6,12.2 37.6,12.2 C37.8,12.2 38,12 38.2,11.9 C38.7,11.6 39.2,11.3 39.7,11 C39.4,10.9 39.4,10.5 39.2,10.2 L39.2,10.1 C39.1,10 39.1,9.7 39.1,9.5 C39,9.3 39,9 38.8,8.9 C38.5,8.8 38.4,9.1 38.3,9.3 C38.3,9.4 38.4,9.6 38.3,9.6 C38.3,9.6 38.4,9.6 38.4,9.7 L38.4,9.7 C38.4,9.8 38.5,9.9 38.4,10 C38.5,10 38.5,10.1 38.5,10.2 C38.5,10.2 38.4,10.2 38.4,10.3 C38.4,10.4 38.4,10.6 38.5,10.6 C38.5,10.7 38.6,10.9 38.6,11 C38.5,11.1 38.5,11.1 38.6,11.2 C38.5,11.4 38,11.5 37.9,11.3 C37.8,11.2 37.8,10.9 37.8,10.8 C37.7,10.5 37.6,10.1 37.5,9.8 C37.4,9.4 37.2,8.9 37.7,8.8 L37.9,8.8 L38,8.8 C38.1,8.8 38.2,8.9 38.2,8.9 C38.4,8.9 38.4,8.7 38.6,8.6 C38.7,8.5 38.9,8.5 39,8.5 C39.2,8.5 39.4,8.6 39.5,8.7 L39.5,8.8 C39.5,8.8 39.6,8.8 39.5,8.9 L39.6,9 C39.6,9.1 39.5,9 39.6,9.1 C39.7,9.2 39.7,9.3 39.8,9.4 C39.8,9.4 39.8,9.4 39.8,9.5 C39.9,9.5 39.8,9.6 39.9,9.6 C39.9,9.7 39.9,9.9 40,9.9 C40,10 40,10.1 40.1,10.1 L40.1,10.2 C40.2,10.2 40.1,10.3 40.2,10.4 C40.2,10.5 40.3,10.5 40.3,10.6 C40.4,10.7 40.4,10.8 40.5,10.8 C40.8,10.8 41.1,10.5 41.4,10.4 L41.8,10.4 C41.9,10.5 42,10.6 42.1,10.7 C42,11.2 41.7,11.2 41.2,11.3 C40.6,11.5 40,11.9 39.4,12.2 C39.2,12.3 39,12.4 38.8,12.5 C38.3,12.8 37.9,13 37.4,13.4 C37.3,13.5 37.2,13.5 37.2,13.6 C36.4,14 36.2,14.2 36,14.4" id="Shape"></path>
                        <path d="M22.9,25.3 C21.7,25.4 20.5,25.6 19.2,25.7 C17.9,25.8 16.7,25.9 15.8,26.3 C15.3,26.5 14.9,26.8 14.6,27.1 C14.3,27.4 14,27.8 13.7,28.3 C13.2,29.1 12.6,29.9 12.1,30.8 C11.6,30.5 11.1,30.1 10.6,29.7 C10.1,29.3 9.6,29 9.2,28.6 C8.4,27.8 7.7,26.5 8,24.9 C8.3,23.6 9.1,22.6 10.1,21.9 C11.1,21.2 12.4,20.7 14,20.6 C15.2,20.5 16.1,20.8 17,21.1 C17.4,21.3 17.8,21.4 18.1,21.7 C18.4,21.9 18.7,22.2 19.1,22.4 C20.1,23.2 21,23.9 22,24.6 C22.3,24.8 22.7,25 22.9,25.3" id="Shape"></path>
                        <path d="M20.1,31.8 C20.8,33.6 21.5,35.4 22.2,37.2 C20.4,37.6 18.7,38 16.9,38.4 C16.8,38.4 16.9,38.3 17,38.2 C17.8,36.6 18.5,35 19.3,33.4 C19.5,32.9 19.8,32.3 20.1,31.8" id="Shape"></path>
                        <path d="M44.7,36.4 L44.7,36.4 C44.8,37 44.8,37.6 45,38.1 C45.2,38.7 45.8,39.4 46.6,39.4 C46.9,39.4 47.2,39.3 47.5,39.2 C48.4,38.9 49.3,38.6 50.1,38.4 C49.4,41.2 48.7,44.1 48,47 C47.7,48.4 47.4,49.9 46.7,51 C46.1,52 45,53 43.4,53.1 C41.6,53.2 40.7,52.2 39.7,51.5 C36.6,49.2 33.6,46.9 30.5,44.7 C30.6,44.5 30.8,44.4 30.9,44.3 C31,44.2 31.2,44 31.3,43.8 C33,44 34.6,43.8 35.9,43.5 C37.3,43.1 38.5,42.7 39.6,42 C40.7,41.4 41.7,40.6 42.5,39.7 C43.6,38.7 44.3,37.6 44.7,36.4" id="Shape"></path>
                    </g>
                </g>
            </g>
        </g>
    </g>
</svg>